<svg width="1940" height="2746" viewBox="0 0 1940 2746" fill="none" xmlns="http://www.w3.org/2000/svg">
<g clip-path="url(#clip0_238_35)" filter="url(#filter0_d_238_35)">
<rect width="1920" height="2716" transform="translate(10)" fill="white"/>
<path d="M10 0H1930V1440H10V0Z" fill="url(#paint0_linear_238_35)"/>
<g filter="url(#filter1_f_238_35)">
<ellipse cx="929.5" cy="1055" rx="1296.5" ry="795" fill="white"/>
</g>
<path style="mix-blend-mode:multiply" opacity="0.3" d="M-140 210.149C-140 210.149 -84.1721 157.553 -5.69937 193.663C72.7733 229.772 79.1881 326.232 79.1881 326.232C79.1881 326.232 100.025 296.15 138.806 301.796C177.588 307.442 192.867 342.041 192.867 342.041C192.867 342.041 235.76 272.287 328.521 278.789C416.041 288.792 436.479 369.819 436.479 369.819C436.479 369.819 454.298 328.537 496.224 342.041C538.149 355.546 538.895 405.226 538.895 405.226C538.895 405.226 562.12 373.868 601.038 384.824C639.957 395.78 638.247 428.406 638.247 428.406C638.247 428.406 650.301 412.258 672.312 420.332C694.323 428.406 701.66 453.847 701.66 453.847C701.66 453.847 717.906 384.327 797.041 389.825C876.176 395.324 892.139 473.23 892.139 473.23C892.139 473.23 907.62 447.984 935.396 451.846C963.172 455.708 972.703 484.221 972.703 484.221C972.703 484.221 979.418 436.48 1008.77 428.406C1038.11 420.332 1056.87 441.624 1056.87 441.624C1056.87 441.624 1066.41 389.746 1118.82 369.319C1171.23 348.891 1224.49 420.332 1224.49 420.332C1224.49 420.332 1233.07 366.476 1282.33 348.891C1331.59 331.306 1375.29 378.66 1375.29 378.66C1375.29 378.66 1367.23 320.803 1421.21 292.293C1475.19 263.784 1515.02 309.799 1515.02 309.799C1515.02 309.799 1534.93 238.775 1630.32 251.78C1725.7 264.784 1741.01 348.891 1741.01 348.891C1741.01 348.891 1748.76 320.803 1781.25 320.803C1813.74 320.803 1826.32 358.815 1826.32 358.815C1826.32 358.815 1846.23 309.299 1894.45 300.796C1942.66 292.293 1950 372.93 1950 372.93V956H-140V210.149Z" fill="url(#paint1_radial_238_35)"/>
<path d="M1950 420.426C1950 420.426 1927.99 378.153 1838.97 402.622C1749.96 427.092 1721.03 507.208 1721.03 507.208C1721.03 507.208 1709.82 447 1653.16 441C1596.5 435 1567.49 493.848 1567.49 493.848C1567.49 493.848 1509.85 406.602 1416.18 419.301C1322.5 432 1313.81 536.136 1313.81 536.136C1313.81 536.136 1255.41 473.837 1176.95 504.986C1098.5 536.136 1093.5 642.578 1093.5 642.578C1093.5 642.578 1072.89 599.116 1008.94 611.808C945 624.5 924.385 680.787 924.385 680.787C924.385 680.787 897.5 589 797 589C696.5 589 659.568 680.787 659.568 680.787C659.568 680.787 650.146 650.355 613.386 644.631C570.55 637.951 554.969 660.761 554.969 660.761C554.969 660.761 558 581 501.558 557.202C445.116 533.404 405.5 570.5 405.5 570.5C405.5 570.5 405.5 522.467 361.366 500.528C317.232 478.589 276.806 513.874 276.806 513.874C276.806 513.874 262.5 417.5 181.5 405C100.5 392.5 62.5 472 62.5 472C62.5 472 23.559 399.159 -29.5 429C-82.559 458.842 -179.406 589.617 -179.406 589.617C-179.406 589.617 -182.556 571.729 -190.909 569.507C-199.262 567.285 -205 571.729 -205 571.729V1122.55H1950V420.426Z" fill="url(#paint2_radial_238_35)"/>
<g style="mix-blend-mode:multiply" opacity="0.25" filter="url(#filter2_f_238_35)">
<ellipse cx="465.5" cy="328.5" rx="510.5" ry="184.5" fill="#1B29A4"/>
</g>
<g style="mix-blend-mode:soft-light" opacity="0.2">
<path d="M1736 -553L738 567L678 665L916 713L2150 525L1736 -553Z" fill="white"/>
</g>
<g style="mix-blend-mode:multiply" opacity="0.2">
<path d="M2123.21 635.294C2124.44 627.031 2125.28 618.64 2125.69 610.14L2121.2 609.92C2121.4 605.806 2121.5 601.665 2121.5 597.5C2121.5 593.335 2121.4 589.194 2121.2 585.08L2125.69 584.86C2125.28 576.36 2124.44 567.969 2123.21 559.706L2118.76 560.369C2117.53 552.117 2115.9 543.997 2113.89 536.027L2118.25 534.925C2116.18 526.706 2113.7 518.645 2110.85 510.763L2106.62 512.295C2103.79 504.478 2100.58 496.841 2097.01 489.404L2101.07 487.459C2097.42 479.837 2093.4 472.423 2089.03 465.239L2085.18 467.576C2080.88 460.488 2076.23 453.628 2071.26 447.017L2074.86 444.314C2069.79 437.572 2064.4 431.086 2058.7 424.878L2055.39 427.92C2049.79 421.82 2043.89 415.993 2037.72 410.462L2040.73 407.111C2034.46 401.492 2027.91 396.174 2021.11 391.179L2018.45 394.806C2011.79 389.915 2004.87 385.34 1997.74 381.102L2000.03 377.232C1992.81 372.944 1985.36 368.995 1977.7 365.408L1975.79 369.483C1968.32 365.987 1960.66 362.84 1952.81 360.066L1954.31 355.824C1946.41 353.029 1938.34 350.606 1930.1 348.574L1929.03 352.942C1921.05 350.973 1912.91 349.377 1904.65 348.176L1905.3 343.723C1897.03 342.521 1888.64 341.707 1880.14 341.301L1879.93 345.796C1875.81 345.599 1871.67 345.5 1867.5 345.5C1863.33 345.5 1859.19 345.599 1855.07 345.796L1854.86 341.301C1846.36 341.708 1837.97 342.521 1829.7 343.723L1830.35 348.176C1822.09 349.377 1813.95 350.973 1805.97 352.942L1804.9 348.574C1796.66 350.606 1788.59 353.029 1780.69 355.824L1782.19 360.066C1774.34 362.84 1766.68 365.987 1759.21 369.483L1757.3 365.408C1749.64 368.995 1742.19 372.944 1734.97 377.232L1737.26 381.102C1730.13 385.34 1723.21 389.915 1716.55 394.806L1713.89 391.179C1707.09 396.174 1700.54 401.492 1694.27 407.111L1697.28 410.462C1691.11 415.993 1685.21 421.82 1679.61 427.92L1676.3 424.878C1670.6 431.086 1665.21 437.572 1660.14 444.314L1663.74 447.017C1658.77 453.628 1654.12 460.488 1649.82 467.576L1645.97 465.239C1641.6 472.423 1637.58 479.837 1633.93 487.459L1637.99 489.404C1634.42 496.841 1631.21 504.478 1628.38 512.295L1624.15 510.763C1621.3 518.645 1618.82 526.706 1616.75 534.925L1621.11 536.027C1619.1 543.997 1617.47 552.117 1616.24 560.369L1611.79 559.706C1610.56 567.969 1609.72 576.36 1609.31 584.86L1613.8 585.08C1613.6 589.194 1613.5 593.335 1613.5 597.5C1613.5 601.665 1613.6 605.806 1613.8 609.92L1609.31 610.14C1609.72 618.64 1610.56 627.031 1611.79 635.294L1616.24 634.631C1617.47 642.883 1619.1 651.003 1621.11 658.973L1616.75 660.075C1618.82 668.294 1621.3 676.355 1624.15 684.237L1628.38 682.705C1631.21 690.522 1634.42 698.159 1637.99 705.596L1633.93 707.541C1637.58 715.163 1641.6 722.577 1645.97 729.761L1649.82 727.424C1654.12 734.512 1658.77 741.372 1663.74 747.983L1660.14 750.686C1665.21 757.428 1670.6 763.914 1676.3 770.122L1679.61 767.08C1685.21 773.18 1691.11 779.007 1697.28 784.538L1694.27 787.889C1700.54 793.508 1707.09 798.826 1713.89 803.821L1716.55 800.194C1723.21 805.085 1730.13 809.66 1737.26 813.898L1734.97 817.768C1742.19 822.056 1749.64 826.005 1757.3 829.592L1759.21 825.517C1766.68 829.013 1774.34 832.16 1782.19 834.934L1780.69 839.176C1788.59 841.971 1796.66 844.394 1804.9 846.426L1805.97 842.058C1813.95 844.027 1822.09 845.623 1830.35 846.824L1829.7 851.277C1837.97 852.479 1846.36 853.293 1854.86 853.699L1855.07 849.204C1859.19 849.401 1863.33 849.5 1867.5 849.5C1871.67 849.5 1875.81 849.401 1879.93 849.204L1880.14 853.699C1888.64 853.293 1897.03 852.479 1905.3 851.277L1904.65 846.824C1912.91 845.623 1921.05 844.027 1929.03 842.058L1930.1 846.426C1938.34 844.394 1946.41 841.971 1954.31 839.176L1952.81 834.934C1960.66 832.16 1968.32 829.013 1975.79 825.517L1977.7 829.592C1985.36 826.005 1992.81 822.056 2000.03 817.768L1997.74 813.898C2004.87 809.66 2011.79 805.085 2018.45 800.194L2021.11 803.821C2027.91 798.826 2034.46 793.508 2040.73 787.889L2037.72 784.538C2043.89 779.007 2049.79 773.18 2055.39 767.08L2058.7 770.122C2064.4 763.914 2069.79 757.428 2074.86 750.686L2071.26 747.983C2076.23 741.372 2080.88 734.512 2085.18 727.424L2089.03 729.761C2093.4 722.577 2097.42 715.163 2101.07 707.541L2097.01 705.596C2100.58 698.159 2103.79 690.521 2106.62 682.705L2110.85 684.237C2113.7 676.355 2116.18 668.294 2118.25 660.075L2113.89 658.973C2115.9 651.003 2117.53 642.883 2118.76 634.631L2123.21 635.294Z" stroke="#499DFF" stroke-width="9" stroke-dasharray="25 25"/>
</g>
<g filter="url(#filter3_d_238_35)">
<path d="M1866 815C1985.85 815 2083 717.846 2083 598C2083 478.154 1985.85 381 1866 381C1746.15 381 1649 478.154 1649 598C1649 717.846 1746.15 815 1866 815Z" fill="url(#paint3_radial_238_35)"/>
</g>
<path d="M-194 617.426C-194 617.426 -171.992 575.153 -82.9741 599.622C6.04355 624.092 34.9708 704.208 34.9708 704.208C34.9708 704.208 35.0973 646.761 102.838 638C163.603 630.139 188.509 690.848 188.509 690.848C188.509 690.848 231.649 594.602 339.825 616.301C448 638 442.188 733.136 442.188 733.136C442.188 733.136 494.094 665.972 579.047 701.986C664 738 662.496 839.578 662.496 839.578C662.496 839.578 698.111 805.616 747.055 808.808C796 812 831.615 877.787 831.615 877.787C831.615 877.787 847.577 754.117 965.788 754.16C1084 754.202 1096.43 877.787 1096.43 877.787C1096.43 877.787 1105.85 847.355 1142.61 841.631C1185.45 834.951 1201.03 857.761 1201.03 857.761C1201.03 857.761 1198.88 774.404 1254.44 754.202C1310 734 1365.71 797.67 1365.71 797.67C1365.71 797.67 1343.46 722.012 1394.63 697.528C1445.81 673.045 1479.19 710.874 1479.19 710.874C1479.19 710.874 1502.29 586.216 1641.65 599.608C1781 613 1775.17 719.776 1775.17 719.776C1775.17 719.776 1819.25 630.139 1890.46 670.19C1943.52 700.031 1935.41 786.617 1935.41 786.617C1935.41 786.617 1938.56 768.729 1946.91 766.507C1955.26 764.285 1961 768.729 1961 768.729V1095.55H-194V617.426Z" fill="url(#paint4_radial_238_35)"/>
<g style="mix-blend-mode:multiply" opacity="0.1">
<path d="M224 679C224 679 259.5 621.247 340.5 643.5C421.5 665.753 422.682 735.229 422.682 735.229" stroke="#7E89FC" stroke-width="8" stroke-dasharray="25 25"/>
</g>
<g style="mix-blend-mode:multiply" opacity="0.1">
<path d="M451.052 747.418C451.052 747.418 514.052 680.166 595.052 702.418C676.052 724.671 677.734 799.647 677.734 799.647" stroke="#7E89FC" stroke-width="8" stroke-dasharray="25 25"/>
</g>
<g filter="url(#filter4_d_238_35)">
<path d="M43.3958 971.326C153.67 959.098 233.152 859.79 220.925 749.516C208.697 639.242 109.389 559.76 -0.885025 571.987C-111.159 584.215 -190.642 683.523 -178.414 793.797C-166.186 904.071 -66.8784 983.554 43.3958 971.326Z" fill="url(#paint5_radial_238_35)"/>
</g>
<g style="mix-blend-mode:multiply" opacity="0.2">
<path d="M260.343 806.888C261.516 799.203 262.31 791.396 262.706 783.488L258.212 783.262C258.403 779.441 258.5 775.595 258.5 771.726C258.5 767.858 258.403 764.011 258.212 760.19L262.706 759.965C262.31 752.056 261.516 744.25 260.343 736.564L255.895 737.243C254.727 729.585 253.175 722.049 251.26 714.655L255.617 713.526C253.64 705.894 251.284 698.408 248.568 691.091L244.349 692.656C241.664 685.421 238.621 678.352 235.24 671.47L239.279 669.486C235.814 662.432 232.001 655.572 227.862 648.926L224.042 651.305C219.971 644.769 215.579 638.444 210.887 632.351L214.452 629.605C209.667 623.393 204.577 617.418 199.202 611.701L195.924 614.784C190.658 609.183 185.114 603.835 179.313 598.76L182.276 595.373C176.385 590.22 170.234 585.344 163.845 580.766L161.224 584.424C154.985 579.953 148.514 575.772 141.833 571.901L144.089 568.008C137.329 564.091 130.357 560.486 123.195 557.213L121.325 561.306C114.358 558.122 107.207 555.258 99.8911 552.733L101.359 548.479C93.9917 545.936 86.4606 543.731 78.7855 541.882L77.7318 546.257C70.3033 544.468 62.737 543.019 55.051 541.929L55.6831 537.473C47.9878 536.382 40.1754 535.643 32.2636 535.274L32.054 539.769C28.226 539.59 24.374 539.5 20.5 539.5C16.626 539.5 12.774 539.59 8.94606 539.769L8.73647 535.274C0.824692 535.643 -6.98775 536.382 -14.683 537.473L-14.0509 541.929C-21.7369 543.019 -29.3033 544.468 -36.7318 546.257L-37.7855 541.882C-45.4605 543.731 -52.9917 545.936 -60.3593 548.479L-58.8911 552.733C-66.2065 555.258 -73.3576 558.122 -80.3246 561.306L-82.1951 557.213C-89.3575 560.486 -96.329 564.091 -103.089 568.008L-100.833 571.901C-107.514 575.772 -113.985 579.953 -120.224 584.424L-122.845 580.766C-129.234 585.344 -135.385 590.22 -141.276 595.373L-138.313 598.76C-144.114 603.835 -149.658 609.183 -154.924 614.784L-158.202 611.701C-163.577 617.418 -168.667 623.393 -173.452 629.605L-169.887 632.351C-174.579 638.444 -178.971 644.769 -183.042 651.305L-186.862 648.926C-191.001 655.571 -194.814 662.432 -198.279 669.486L-194.24 671.47C-197.621 678.352 -200.664 685.421 -203.349 692.656L-207.568 691.091C-210.284 698.408 -212.64 705.893 -214.617 713.526L-210.26 714.655C-212.175 722.049 -213.727 729.585 -214.895 737.243L-219.343 736.564C-220.516 744.25 -221.31 752.056 -221.706 759.965L-217.212 760.19C-217.403 764.011 -217.5 767.858 -217.5 771.726C-217.5 775.595 -217.403 779.441 -217.212 783.262L-221.706 783.488C-221.31 791.396 -220.516 799.202 -219.343 806.888L-214.895 806.21C-213.727 813.868 -212.175 821.404 -210.26 828.798L-214.617 829.926C-212.64 837.559 -210.284 845.044 -207.568 852.362L-203.349 850.796C-200.664 858.032 -197.621 865.101 -194.24 871.982L-198.279 873.966C-194.814 881.02 -191.001 887.881 -186.862 894.527L-183.042 892.148C-178.971 898.684 -174.579 905.009 -169.887 911.102L-173.452 913.847C-168.667 920.06 -163.577 926.035 -158.202 931.751L-154.924 928.669C-149.658 934.269 -144.114 939.617 -138.313 944.692L-141.276 948.079C-135.385 953.232 -129.234 958.109 -122.845 962.687L-120.224 959.029C-113.985 963.499 -107.514 967.68 -100.833 971.551L-103.089 975.445C-96.329 979.361 -89.3575 982.966 -82.1951 986.239L-80.3246 982.147C-73.3577 985.33 -66.2066 988.195 -58.8911 990.719L-60.3594 994.973C-52.9917 997.516 -45.4606 999.722 -37.7855 1001.57L-36.7318 997.195C-29.3033 998.984 -21.737 1000.43 -14.051 1001.52L-14.6831 1005.98C-6.98779 1007.07 0.824631 1007.81 8.7364 1008.18L8.946 1003.68C12.774 1003.86 16.626 1003.95 20.5 1003.95C24.374 1003.95 28.226 1003.86 32.0539 1003.68L32.2635 1008.18C40.1753 1007.81 47.9878 1007.07 55.683 1005.98L55.0509 1001.52C62.7369 1000.43 70.3033 998.984 77.7318 997.195L78.7855 1001.57C86.4605 999.722 93.9917 997.516 101.359 994.973L99.8911 990.72C107.207 988.195 114.358 985.33 121.325 982.147L123.195 986.239C130.357 982.966 137.329 979.361 144.089 975.445L141.833 971.551C148.514 967.68 154.985 963.499 161.224 959.029L163.845 962.687C170.234 958.109 176.385 953.232 182.276 948.079L179.313 944.692C185.114 939.617 190.658 934.269 195.924 928.669L199.202 931.751C204.577 926.035 209.667 920.06 214.452 913.847L210.887 911.102C215.579 905.009 219.971 898.684 224.042 892.148L227.862 894.527C232.001 887.881 235.814 881.02 239.279 873.966L235.24 871.982C238.621 865.101 241.664 858.032 244.349 850.796L248.568 852.362C251.284 845.044 253.64 837.559 255.617 829.926L251.26 828.798C253.175 821.404 254.727 813.868 255.895 806.21L260.343 806.888Z" stroke="#499DFF" stroke-width="9" stroke-dasharray="25 25"/>
</g>
<g opacity="0.2">
<circle cx="70.055" cy="70.055" r="65.555" transform="matrix(0.959536 -0.281588 -0.281588 -0.959536 268.453 1679.89)" stroke="#499DFF" stroke-width="9"/>
<line y1="-4.5" x2="134.166" y2="-4.5" transform="matrix(0.855955 0.51705 0.51705 -0.855955 260.002 1553.53)" stroke="#499DFF" stroke-width="9"/>
<line y1="-4.5" x2="134.166" y2="-4.5" transform="matrix(-0.517057 0.855951 0.855951 0.517057 351.951 1535.14)" stroke="#499DFF" stroke-width="9"/>
</g>
<g filter="url(#filter5_d_238_35)">
<path d="M-128 762.763C-128 762.763 -86.1245 714.153 23.2649 743.319C132.654 772.485 118.875 899.671 118.875 899.671C118.875 899.671 125.358 868.078 178.032 872.132C230.707 876.187 246.913 918.316 246.913 918.316C246.913 918.316 301.476 817.635 399.238 830.818C497 844 533.744 954.762 533.744 954.762C533.744 954.762 554.804 923.983 598.569 937.745C642.334 951.506 636.651 992.836 636.651 992.836C636.651 992.836 652.857 960.429 704.718 971.78C756.578 983.13 750.095 1031.72 750.095 1031.72C750.095 1031.72 766.302 1026.87 783.322 1036.58C800.343 1046.28 800.343 1068.98 800.343 1068.98C800.343 1068.98 781.694 988.766 908.104 971.764C1034.51 954.762 1034.51 1073.02 1034.51 1073.02C1034.51 1073.02 1036.13 1047.91 1068.54 1049.53C1100.95 1051.14 1125.25 1085.99 1125.25 1085.99C1125.25 1085.99 1112.29 1048.73 1153.61 1030.08C1194.93 1011.45 1220.05 1035.75 1220.05 1035.75C1220.05 1035.75 1228.28 970.121 1298.64 954.731C1369 939.342 1408.84 1010.64 1408.84 1010.64C1408.84 1010.64 1415.33 959.6 1484.19 939.342C1553.06 919.084 1580.62 971.749 1580.62 971.749C1580.62 971.749 1555.5 881.824 1649.5 830.787C1743.49 779.75 1781.58 859.139 1781.58 859.139C1781.58 859.139 1817.23 771.641 1912.03 810.529C2006.82 849.417 1990.62 926.379 1990.62 926.379C1990.62 926.379 2016.55 903.695 2052.2 919.898C2087.85 936.101 2076.5 970.121 2076.5 970.121C2076.5 970.121 2079.74 935.564 2132.42 923.139C2185.09 910.713 2226 954.731 2226 954.731V1231H-128V762.763Z" fill="url(#paint6_linear_238_35)"/>
</g>
<g style="mix-blend-mode:multiply" opacity="0.1">
<path d="M1608 973C1608 973 1596 881.603 1667 851C1738 820.397 1766 875 1766 875" stroke="#7E89FC" stroke-width="8" stroke-dasharray="25 25"/>
</g>
<g style="mix-blend-mode:multiply" opacity="0.1">
<path d="M1792 886.196C1792 886.196 1815 832.197 1860 825.196C1905 818.196 1932 844.196 1932 844.196" stroke="#7E89FC" stroke-width="8" stroke-dasharray="25 25"/>
</g>
<g style="mix-blend-mode:multiply" opacity="0.1">
<path d="M1434 1020C1434 1020 1437 979 1485 961C1533 943 1569 989 1569 989" stroke="#7E89FC" stroke-width="8" stroke-dasharray="25 25"/>
</g>
<g style="mix-blend-mode:multiply" opacity="0.1">
<path d="M1238 1043C1238 1043 1250 983 1306 972C1362 961 1399 1030 1399 1030" stroke="#7E89FC" stroke-width="8" stroke-dasharray="25 25"/>
</g>
<g style="mix-blend-mode:multiply" opacity="0.05">
<path d="M820.5 1071.5C820.5 1071.5 826.5 995.5 919.5 989C1012.5 982.5 1017 1083.5 1017 1083.5" stroke="url(#paint7_linear_238_35)" stroke-width="8" stroke-dasharray="25 25"/>
</g>
<g style="mix-blend-mode:multiply" opacity="0.1">
<path d="M266.5 932.5C266.5 932.5 298 851 386.5 851C475 851 511.5 960.5 511.5 960.5" stroke="#7E89FC" stroke-width="8" stroke-dasharray="25 25"/>
</g>
<g style="mix-blend-mode:multiply" opacity="0.1">
<path d="M113.5 931C113.5 931 132.5 885 185.5 894.5C238.5 904 241.5 953.5 241.5 953.5" stroke="#7E89FC" stroke-width="8" stroke-dasharray="25 25"/>
</g>
<g style="mix-blend-mode:multiply" opacity="0.1">
<path d="M-96.5 761.5C-96.5 761.5 -16.5 743.971 45 774.5C106.5 805.029 94 918.5 94 918.5" stroke="#7E89FC" stroke-width="8" stroke-dasharray="25 25"/>
</g>
<g style="mix-blend-mode:multiply" opacity="0.05">
<path d="M538.5 972.5C538.5 972.5 556.5 942 593 950.5C629.5 959 621 997.5 621 997.5" stroke="url(#paint8_linear_238_35)" stroke-width="8" stroke-dasharray="25 25"/>
</g>
<g style="mix-blend-mode:multiply" opacity="0.07">
<path d="M1136 1084C1136 1084 1139 1043.38 1171.5 1037C1204 1030.62 1226 1059 1226 1059" stroke="#7E89FC" stroke-width="8" stroke-dasharray="25 25"/>
</g>
<g style="mix-blend-mode:multiply" opacity="0.05">
<path d="M1045 1087.5C1045 1087.5 1052 1071 1074 1071C1096 1071 1116.5 1101.5 1116.5 1101.5" stroke="#7E89FC" stroke-width="8" stroke-dasharray="25 25"/>
</g>
<g style="mix-blend-mode:multiply" opacity="0.2">
<path d="M724 849C884 871 604 979 748 1059C892 1139 676 1113 616 1185C556 1257 992 1273 662 1547" stroke="#499DFF" stroke-width="9" stroke-dasharray="18 18"/>
</g>
<path d="M1004.97 717.982L1264.13 729.999L887.043 985.357L596.533 942.699L1004.97 717.982Z" fill="url(#paint9_linear_238_35)"/>
<path d="M904.971 427.11L465.038 609.187L596.886 942.691L1004.97 719.334L904.971 427.11Z" fill="#7B98FF"/>
<circle opacity="0.2" cx="170" cy="170" r="165.5" transform="matrix(1 0 0 -1 1334 1667)" stroke="#499DFF" stroke-width="9" stroke-dasharray="17.02 17.02"/>
<g opacity="0.1">
<path d="M1918.15 1107.97C1938.21 1093.05 1941.81 1063.26 1925.48 1041.31C1909.16 1019.36 1879.6 1014.23 1859.54 1029.14C1839.48 1044.06 1835.88 1073.85 1852.2 1095.8C1868.53 1117.75 1898.09 1122.88 1918.15 1107.97Z" stroke="#499DFF" stroke-width="7"/>
<line y1="-3.5" x2="97.2249" y2="-3.5" transform="matrix(-0.154914 0.987928 0.975206 0.221301 1899.93 1020.46)" stroke="#499DFF" stroke-width="7"/>
<line y1="-3.5" x2="97.7989" y2="-3.5" transform="matrix(-0.975204 -0.221308 -0.154921 0.987927 1937.15 1080.2)" stroke="#499DFF" stroke-width="7"/>
</g>
<g filter="url(#filter6_d_238_35)">
<path d="M890.209 458.286L506.088 623.72L613.167 890.504L977.036 703.303L890.209 458.286Z" fill="white"/>
</g>
<path d="M856.851 565.008C982.872 508.96 1008.61 602.769 1052.95 608.821C1103.23 615.686 1110.52 576.314 1099.64 532.175C1082.64 463.165 1203.77 475.699 1206.9 478.891C1218.74 490.951 1282.91 501.887 1282.91 501.887C1282.91 501.887 1274.82 518.573 1225.24 512.506C1201.3 509.572 1112.98 523.224 1164.82 607.02C1216.67 690.817 1123.33 737.724 1028.37 667.731C953.412 612.478 849.522 691.98 833.372 723.435L710.269 616.277C710.269 616.277 786.567 596.263 856.851 565.008Z" fill="url(#paint10_linear_238_35)"/>
<g filter="url(#filter7_d_238_35)">
<path d="M1273.5 386.38C1245.86 387.654 1216.7 383.443 1199.09 364.502C1183.29 347.516 1160.1 299.495 1173.04 251.809C1173.21 251.192 1173.37 250.538 1173.52 249.86C1174.98 243.329 1174.3 236.722 1172.75 229.981C1171.19 223.228 1170.65 216.28 1171.33 209.386L1171.39 208.861C1178.18 220.52 1193.16 235.467 1194.03 219.627C1194.36 213.682 1195.03 200.611 1201.76 183.842C1208.63 166.656 1226.12 151.84 1229.34 153.892C1231.79 155.457 1226.54 168.366 1233.02 178.186C1242.97 193.291 1260.71 196.749 1266.16 191.004C1270.63 186.298 1258.94 177.314 1254.93 172.962C1251.27 168.979 1280.07 179.199 1285.75 181.659C1308.62 191.569 1320.03 198.663 1328.87 205.826C1343.52 217.694 1366.97 239.697 1375.32 278.768C1377.63 289.539 1383.84 318.652 1368.37 344.887C1345.83 383.07 1294.92 385.405 1273.53 386.379L1273.5 386.38Z" fill="url(#paint11_linear_238_35)"/>
</g>
<path d="M1367.79 292.019C1368.91 282.644 1377.53 277.536 1383.42 274.044C1388.85 270.822 1400.84 263.706 1412.21 268.888C1413.27 269.361 1422.15 273.564 1423.45 281.782C1425.42 294.111 1406.62 303.493 1404.19 304.711C1401.45 306.093 1381.98 315.543 1372.32 306.181C1366.85 300.888 1367.72 292.669 1367.8 292.019L1367.79 292.019Z" fill="url(#paint12_linear_238_35)"/>
<g filter="url(#filter8_d_238_35)">
<path d="M1325.16 236.354C1349.89 255.464 1372.63 305.035 1350.42 340.642C1330.03 373.331 1285.33 376.747 1276.42 376.96C1270.79 377.095 1243.24 378.962 1218.92 352.611C1184.55 315.386 1200.03 246.313 1203.71 244.49C1206.72 242.997 1211.11 257.214 1216.89 253.168C1224.05 248.152 1221.43 205.398 1225.84 207.196C1227.69 207.944 1234.98 225.707 1243.19 232.551C1254.71 242.139 1272.56 241.315 1277.85 226.738C1281.16 217.611 1273.58 205.467 1274.07 204.984C1274.82 204.254 1312.16 226.338 1325.15 236.38L1325.16 236.354Z" fill="url(#paint13_linear_238_35)"/>
</g>
<g opacity="0.95" filter="url(#filter9_d_238_35)">
<path d="M1322.59 309.878C1334.79 309.316 1344.13 296.797 1343.44 281.916C1342.76 267.036 1332.31 255.43 1320.1 255.992C1307.9 256.555 1298.56 269.074 1299.25 283.954C1299.93 298.835 1310.38 310.441 1322.59 309.878Z" fill="white"/>
</g>
<g opacity="0.95" filter="url(#filter10_d_238_35)">
<path d="M1276.13 323.811C1289.95 320.606 1298.24 305.67 1294.66 290.452C1291.07 275.234 1276.96 265.496 1263.14 268.702C1249.32 271.907 1241.02 286.843 1244.61 302.061C1248.2 317.279 1262.31 327.017 1276.13 323.811Z" fill="white"/>
</g>
<path d="M1312.94 294.831C1317.01 294.557 1319.98 289.698 1319.57 283.98C1319.16 278.261 1315.54 273.847 1311.47 274.122C1307.41 274.396 1304.44 279.254 1304.84 284.973C1305.25 290.691 1308.88 295.105 1312.94 294.831Z" fill="#FF842C"/>
<path d="M1274.48 305.154C1279.09 304.92 1282.58 300.09 1282.27 294.366C1281.96 288.641 1277.97 284.189 1273.35 284.423C1268.74 284.656 1265.25 289.486 1265.56 295.211C1265.87 300.936 1269.86 305.387 1274.48 305.154Z" fill="#FF842C"/>
<path d="M1295.93 318.566C1296.94 323.965 1300.43 327.943 1304.16 328.343C1309.21 328.881 1315.18 322.863 1314.78 314.328" stroke="#697CFC" stroke-width="4" stroke-miterlimit="10"/>
<path d="M1314.19 373.937L1233.95 349.208L1160.03 382.749L1221.33 416.097L1314.19 373.937Z" fill="url(#paint14_linear_238_35)"/>
<path d="M1223.6 528.157C1237.5 521.85 1240.28 498.387 1229.82 475.751C1219.35 453.115 1199.61 439.878 1185.72 446.185C1171.82 452.492 1169.04 475.954 1179.5 498.59C1189.96 521.226 1209.71 534.463 1223.6 528.157Z" fill="url(#paint15_linear_238_35)"/>
<path d="M1363.05 479.648L1329.54 556.029L1255.64 589.582L1270.19 521.808L1363.05 479.648Z" fill="url(#paint16_linear_238_35)"/>
<path d="M1171.68 400.314C1165.77 392.524 1166.42 376.8 1170.11 365.741C1175.2 350.532 1188.56 336.672 1199.48 342.832C1209.53 348.519 1212.43 368.319 1207.94 382.698C1201.55 403.162 1180.46 411.878 1171.68 400.301L1171.68 400.314Z" fill="url(#paint17_linear_238_35)"/>
<g filter="url(#filter11_d_238_35)">
<path d="M1321.82 528.95C1250.02 561.548 1220.52 532.613 1200.57 489.465C1180.63 446.316 1177.78 405.276 1249.58 372.69C1321.38 340.092 1395.77 348.645 1415.71 391.806C1435.65 434.955 1393.62 496.364 1321.82 528.962L1321.82 528.95Z" fill="url(#paint18_linear_238_35)"/>
</g>
<path d="M1351.6 353.777C1354.2 371.21 1360.33 391.488 1369.88 412.131C1379.56 433.079 1391.24 451.137 1403.03 464.529C1420.14 439.648 1425.72 413.422 1415.72 391.793C1405.7 370.104 1381.91 357.153 1351.6 353.777Z" fill="url(#paint19_linear_238_35)"/>
<path d="M1316.14 470.972C1334.57 470.122 1348.83 454.637 1347.99 436.387C1347.15 418.136 1331.53 404.029 1313.09 404.879C1294.66 405.729 1280.4 421.213 1281.25 439.464C1282.09 457.715 1297.71 471.821 1316.14 470.972Z" fill="url(#paint20_linear_238_35)" stroke="url(#paint21_linear_238_35)" stroke-width="14" stroke-miterlimit="10"/>
<g filter="url(#filter12_ddi_238_35)">
<path d="M272.987 732.639C273.812 731.017 275.044 730.239 276.522 728.916C277.612 728.012 279.028 726.911 280.191 726.027C282.422 724.322 284.244 723.041 286.423 721.327C287.156 720.743 287.891 720.144 288.557 719.504C289.749 718.358 290.087 717.598 290.323 716.519C291.195 710.929 290.966 705.134 291.801 699.496C292.273 696.733 292.496 695.602 293.55 694.916C294.966 693.967 299.712 697.15 301.622 698.42C304.233 700.162 307.059 702.204 309.662 703.933C312.895 706.224 314.41 706.74 318.329 705.747C321.612 705.025 325.772 703.836 329.188 703.055C331.325 702.672 337.175 701.012 337.79 703.418C338.223 704.68 337.339 707.979 336.792 710.12C335.845 713.692 334.676 717.138 333.659 720.676C332.212 725.312 332.506 726.326 335.132 730.421C337.428 734.139 339.961 737.765 342.056 741.573C343.111 743.606 343.593 744.549 343.602 745.734C343.551 746.628 342.807 747.269 340.837 747.694C337.957 748.26 334.521 748.363 331.437 748.425C328.024 748.543 324.707 748.448 321.532 748.914C318.452 749.481 316.968 752.195 314.913 754.459C313.287 756.394 311.727 758.339 310.12 760.218C308.508 761.983 305.358 766.037 303.347 765.781C302.284 765.522 301.819 764.677 300.793 762.669C298.429 757.59 296.86 751.828 294.724 746.544C294.102 745.104 293.744 744.586 292.464 743.794C291.31 743.112 290.039 742.579 288.792 742.066C285.883 740.906 283.079 739.886 280.126 738.665C277.447 737.425 271.951 735.823 272.974 732.668L272.986 732.636L272.987 732.639Z" fill="#FFEE96"/>
</g>
<g style="mix-blend-mode:multiply" opacity="0.1">
<path d="M1504 709.5C1504 709.5 1530 604.5 1641 613C1752 621.5 1756.5 729.5 1756.5 729.5" stroke="#7E89FC" stroke-width="8" stroke-dasharray="25 25"/>
</g>
<g style="mix-blend-mode:multiply" opacity="0.1">
<path d="M1793 732C1793 732 1814 675 1858 675C1902 675 1932 744 1932 744" stroke="#7E89FC" stroke-width="8" stroke-dasharray="25 25"/>
</g>
<g style="mix-blend-mode:multiply" opacity="0.1">
<path d="M1230.5 853.5C1230.5 853.5 1228.5 784 1268.5 771C1308.5 758 1354 813 1354 813" stroke="#7E89FC" stroke-width="8" stroke-dasharray="25 25"/>
</g>
<g filter="url(#filter13_d_238_35)">
<path d="M770 747.5V577.5" stroke="#7690EF" stroke-width="21"/>
</g>
<g filter="url(#filter14_d_238_35)">
<path d="M811.5 588L870.5 622.5L845 679" stroke="#7690EF" stroke-width="21"/>
</g>
<g filter="url(#filter15_d_238_35)">
<path d="M692 635L654 709.5L724 734.5" stroke="#7690EF" stroke-width="21"/>
</g>
<g opacity="0.9" filter="url(#filter16_ddi_238_35)">
<path d="M1566.24 420.108C1566.4 419.125 1566.92 418.517 1567.47 417.584C1567.89 416.932 1568.45 416.125 1568.91 415.472C1569.8 414.216 1570.54 413.248 1571.4 411.995C1571.68 411.569 1571.97 411.136 1572.21 410.692C1572.65 409.898 1572.7 409.446 1572.64 408.844C1572.18 405.781 1571.11 402.792 1570.62 399.71C1570.41 398.19 1570.34 397.563 1570.78 397.031C1571.37 396.303 1574.37 397.187 1575.57 397.537C1577.22 398.018 1579.03 398.62 1580.68 399.096C1582.74 399.762 1583.62 399.783 1585.5 398.62C1587.1 397.704 1589.08 396.401 1590.73 395.432C1591.78 394.881 1594.57 393.054 1595.28 394.21C1595.72 394.798 1595.8 396.666 1595.86 397.873C1595.95 399.894 1595.91 401.886 1595.96 403.901C1595.96 406.56 1596.28 407.041 1598.33 408.748C1600.14 410.313 1602.05 411.791 1603.77 413.436C1604.66 414.325 1605.06 414.738 1605.26 415.356C1605.38 415.831 1605.1 416.287 1604.14 416.833C1602.73 417.601 1600.95 418.219 1599.35 418.758C1597.59 419.379 1595.84 419.874 1594.26 420.639C1592.74 421.441 1592.42 423.102 1591.71 424.621C1591.18 425.899 1590.69 427.171 1590.16 428.416C1589.6 429.603 1588.62 432.237 1587.53 432.433C1586.93 432.472 1586.55 432.108 1585.69 431.227C1583.62 428.962 1581.85 426.211 1579.87 423.802C1579.31 423.152 1579.04 422.94 1578.24 422.737C1577.52 422.57 1576.77 422.5 1576.04 422.437C1574.33 422.309 1572.7 422.236 1570.95 422.083C1569.35 421.875 1566.22 421.941 1566.23 420.125L1566.23 420.107L1566.24 420.108Z" fill="#FFEE96"/>
</g>
<g filter="url(#filter17_ddi_238_35)">
<path d="M1731.2 714.155C1731.53 711.566 1732.83 709.923 1734.19 707.426C1735.23 705.68 1736.62 703.512 1737.77 701.759C1739.97 698.383 1741.82 695.777 1743.94 692.415C1744.65 691.272 1745.36 690.111 1745.95 688.925C1747.01 686.805 1747.11 685.614 1746.91 684.042C1745.41 676.066 1742.32 668.34 1740.74 660.314C1740.05 656.352 1739.81 654.715 1740.91 653.282C1742.37 651.319 1750.31 653.348 1753.51 654.149C1757.87 655.252 1762.67 656.658 1767.02 657.747C1772.49 659.295 1774.79 659.267 1779.61 656.044C1783.7 653.493 1788.76 649.89 1793 647.196C1795.71 645.652 1802.82 640.603 1804.81 643.561C1806 645.06 1806.39 649.945 1806.68 653.102C1807.11 658.386 1807.18 663.607 1807.5 668.879C1807.77 675.842 1808.65 677.072 1814.17 681.349C1819.06 685.275 1824.22 688.964 1828.88 693.108C1831.28 695.352 1832.38 696.396 1832.96 697.995C1833.33 699.227 1832.63 700.45 1830.17 701.97C1826.54 704.117 1821.95 705.904 1817.81 707.467C1813.25 709.263 1808.72 710.726 1804.65 712.88C1800.75 715.124 1800.05 719.504 1798.36 723.552C1797.09 726.949 1795.91 730.327 1794.64 733.638C1793.3 736.799 1790.99 743.791 1788.15 744.409C1786.58 744.569 1785.55 743.65 1783.2 741.426C1777.57 735.691 1772.68 728.652 1767.26 722.532C1765.73 720.884 1764.99 720.355 1762.88 719.898C1761 719.529 1759.02 719.417 1757.09 719.322C1752.6 719.149 1748.32 719.114 1743.74 718.879C1739.52 718.488 1731.32 718.958 1731.19 714.2L1731.19 714.152L1731.2 714.155Z" fill="#FFEE96"/>
</g>
<path d="M1767.96 1351.55C1768.18 1351.62 1768.47 1351.69 1768.83 1351.77C1769.81 1351.97 1770.98 1352.08 1772.3 1352.16C1772.68 1352.18 1773.12 1352.21 1773.56 1352.23C1774.41 1352.28 1775.32 1352.32 1776.06 1352.39C1778.72 1352.52 1781.17 1352.59 1783.68 1352.65C1785.48 1352.7 1787.3 1352.75 1789.26 1352.83L1789.29 1352.83L1789.31 1352.83C1791.22 1352.92 1793.5 1353.04 1795.75 1353.48L1795.79 1353.49L1795.84 1353.5C1797.13 1353.78 1798.4 1354.16 1799.66 1354.94C1800.85 1355.68 1801.76 1356.61 1802.56 1357.47L1802.59 1357.51L1802.63 1357.55C1804.96 1360.18 1807.2 1362.99 1809.36 1365.69C1809.8 1366.23 1810.23 1366.77 1810.66 1367.31C1813.24 1370.52 1815.73 1373.54 1818.35 1376.21C1818.73 1376.57 1819.04 1376.86 1819.32 1377.12C1819.51 1376.79 1819.71 1376.41 1819.93 1375.98C1820.61 1374.59 1821.17 1373.2 1821.7 1371.85C1821.95 1371.21 1822.2 1370.57 1822.46 1369.96C1823.18 1368.07 1823.84 1366.25 1824.52 1364.38C1825.04 1362.96 1825.57 1361.51 1826.14 1359.97L1826.17 1359.89L1826.2 1359.82C1826.53 1359.05 1826.81 1358.26 1827.13 1357.36C1827.18 1357.23 1827.22 1357.1 1827.27 1356.97C1827.64 1355.95 1828.06 1354.79 1828.6 1353.64C1829.69 1351.3 1831.35 1348.74 1834.4 1346.98L1834.47 1346.94L1834.54 1346.9C1837.78 1345.19 1841.4 1343.83 1844.76 1342.57C1845.93 1342.13 1847.07 1341.71 1848.16 1341.28L1848.19 1341.27L1848.22 1341.26C1852.33 1339.7 1856.49 1338.07 1859.7 1336.2C1859.27 1335.77 1858.69 1335.22 1857.85 1334.43C1854.92 1331.84 1851.91 1329.52 1848.77 1327.09C1847.01 1325.74 1845.22 1324.36 1843.38 1322.88C1840.75 1320.84 1838.38 1318.94 1836.93 1316.29C1835.43 1313.57 1835.14 1310.56 1835.01 1307.1C1834.86 1304.75 1834.77 1302.56 1834.69 1300.43C1834.56 1297.45 1834.44 1294.57 1834.19 1291.49C1834.18 1291.34 1834.16 1291.19 1834.15 1291.03C1834.01 1289.52 1833.86 1287.87 1833.64 1286.4C1833.59 1286.11 1833.54 1285.84 1833.49 1285.59C1833.36 1285.64 1833.21 1285.71 1833.05 1285.78C1831.61 1286.44 1830.3 1287.25 1829.04 1288.02C1828.46 1288.38 1827.89 1288.72 1827.33 1289.05C1825.4 1290.28 1823.29 1291.7 1821.12 1293.16L1820.77 1293.4C1818.5 1294.94 1816.16 1296.51 1814.05 1297.83C1811.43 1299.57 1808.96 1300.82 1806.08 1301.15C1803.29 1301.48 1800.62 1300.88 1797.86 1300.1C1795.65 1299.54 1793.34 1298.91 1791.08 1298.29L1790.94 1298.25C1788.69 1297.64 1786.5 1297.04 1784.41 1296.51C1784.41 1296.51 1784.41 1296.51 1784.4 1296.51L1784.33 1296.49C1782.68 1296.08 1780.18 1295.45 1777.93 1295.14C1777.5 1295.07 1777.11 1295.03 1776.76 1295C1776.77 1295.04 1776.77 1295.08 1776.78 1295.12C1776.87 1295.76 1777 1296.52 1777.17 1297.5C1777.9 1301.21 1778.98 1304.9 1780.13 1308.81L1780.17 1308.93C1781.32 1312.83 1782.53 1316.97 1783.33 1321.21L1783.35 1321.34L1783.37 1321.48C1783.5 1322.51 1783.57 1323.69 1783.34 1325.04C1783.11 1326.37 1782.63 1327.63 1781.97 1328.94M1767.96 1351.55L1777.95 1326.93M1767.96 1351.55C1768.16 1351.06 1768.45 1350.54 1768.91 1349.76C1769.23 1349.21 1769.62 1348.54 1770.1 1347.66M1767.96 1351.55L1763.43 1350.95C1763.82 1349.52 1764.51 1348.33 1765.31 1346.98C1765.59 1346.49 1765.89 1345.98 1766.19 1345.43M1781.97 1328.94L1777.95 1326.93M1781.97 1328.94C1781.97 1328.94 1781.97 1328.94 1781.97 1328.94L1777.95 1326.93M1781.97 1328.94C1781.28 1330.33 1780.48 1331.64 1779.76 1332.79L1779.75 1332.81L1779.74 1332.82C1778.5 1334.79 1777.27 1336.63 1776.04 1338.45C1775.2 1339.7 1774.37 1340.94 1773.54 1342.22L1773.53 1342.22C1772.41 1343.94 1771.09 1346.01 1770.1 1347.66M1777.95 1326.93C1777.36 1328.11 1776.65 1329.27 1775.94 1330.41C1774.7 1332.38 1773.56 1334.08 1772.38 1335.83C1771.54 1337.08 1770.68 1338.35 1769.77 1339.76C1768.62 1341.51 1767.23 1343.68 1766.19 1345.43M1770.1 1347.66C1770.11 1347.63 1770.13 1347.61 1770.14 1347.58L1766.19 1345.43M1770.1 1347.66C1770.09 1347.68 1770.07 1347.71 1770.06 1347.73L1766.19 1345.43M1818.43 1378.34C1818.43 1378.34 1818.44 1378.33 1818.46 1378.31C1818.44 1378.34 1818.43 1378.34 1818.43 1378.34Z" stroke="#499DFF" stroke-opacity="0.18" stroke-width="9"/>
<path d="M131.541 1116.35C131.712 1116.19 131.919 1115.98 132.161 1115.71C132.821 1114.95 133.499 1113.99 134.221 1112.88C134.433 1112.56 134.666 1112.2 134.906 1111.82C135.368 1111.1 135.859 1110.34 136.281 1109.73C137.715 1107.49 138.983 1105.39 140.283 1103.24C141.214 1101.7 142.16 1100.14 143.195 1098.47L143.208 1098.45L143.221 1098.43C144.245 1096.82 145.48 1094.9 146.975 1093.16L147.004 1093.13L147.035 1093.1C147.919 1092.11 148.882 1091.2 150.18 1090.49C151.409 1089.82 152.671 1089.49 153.808 1089.22L153.86 1089.21L153.914 1089.2C157.357 1088.47 160.905 1087.91 164.319 1087.38C165.008 1087.27 165.692 1087.16 166.368 1087.05C170.433 1086.4 174.29 1085.73 177.917 1084.77C178.409 1084.62 178.821 1084.5 179.177 1084.38C178.989 1084.06 178.761 1083.69 178.49 1083.29C177.623 1082.01 176.686 1080.84 175.778 1079.71C175.346 1079.17 174.921 1078.64 174.514 1078.11C173.234 1076.55 171.98 1075.07 170.689 1073.55C169.71 1072.4 168.71 1071.23 167.661 1069.97L167.607 1069.9L167.555 1069.84C167.045 1069.18 166.504 1068.54 165.881 1067.82C165.792 1067.71 165.702 1067.61 165.609 1067.5C164.908 1066.68 164.104 1065.73 163.374 1064.7C161.875 1062.59 160.476 1059.88 160.458 1056.36L160.458 1056.28L160.46 1056.2C160.574 1052.54 161.187 1048.72 161.757 1045.18C161.956 1043.94 162.149 1042.74 162.314 1041.59L162.318 1041.56L162.323 1041.52C163.011 1037.18 163.652 1032.76 163.613 1029.05C163.021 1029.2 162.258 1029.44 161.163 1029.78C157.461 1031.03 153.952 1032.5 150.287 1034.03C148.248 1034.89 146.16 1035.76 143.963 1036.63C140.888 1037.91 138.063 1039.02 135.043 1038.98C131.935 1038.93 129.18 1037.69 126.109 1036.1C123.995 1035.06 122.049 1034.05 120.147 1033.07C117.501 1031.7 114.941 1030.38 112.138 1029.08C112 1029.01 111.861 1028.95 111.721 1028.89C110.336 1028.25 108.835 1027.57 107.444 1027.04C107.165 1026.94 106.904 1026.84 106.664 1026.76C106.646 1026.91 106.629 1027.07 106.614 1027.24C106.475 1028.82 106.526 1030.36 106.575 1031.83C106.597 1032.51 106.619 1033.18 106.622 1033.83C106.733 1036.11 106.926 1038.65 107.125 1041.26L107.157 1041.69C107.365 1044.42 107.574 1047.22 107.675 1049.71C107.894 1052.85 107.757 1055.62 106.622 1058.29C105.523 1060.87 103.678 1062.89 101.635 1064.9C100.06 1066.55 98.3687 1068.24 96.714 1069.9L96.606 1070.01C94.9605 1071.66 93.3532 1073.27 91.8632 1074.82C91.8619 1074.82 91.8606 1074.82 91.8593 1074.82L91.8045 1074.88C90.6325 1076.1 88.8484 1077.97 87.458 1079.77C87.1921 1080.11 86.9608 1080.43 86.7634 1080.71C86.8011 1080.73 86.8398 1080.74 86.8795 1080.76C87.4766 1081 88.1991 1081.26 89.1313 1081.6C92.7248 1082.8 96.4608 1083.68 100.431 1084.62L100.55 1084.65C104.508 1085.58 108.704 1086.57 112.787 1087.98L112.915 1088.03L113.041 1088.08C114.001 1088.47 115.058 1089 116.123 1089.87C117.164 1090.73 118.022 1091.77 118.834 1092.99M131.541 1116.35L115.091 1095.48M131.541 1116.35C131.211 1115.94 130.913 1115.42 130.454 1114.64C130.139 1114.1 129.748 1113.43 129.22 1112.57M131.541 1116.35L128.785 1119.99C127.73 1118.95 127.043 1117.76 126.254 1116.39C125.972 1115.9 125.676 1115.39 125.346 1114.86M118.834 1092.99L115.091 1095.48M118.834 1092.99C118.833 1092.98 118.833 1092.98 118.833 1092.98L115.091 1095.48M118.834 1092.99C119.695 1094.28 120.44 1095.62 121.085 1096.82L121.092 1096.83L121.099 1096.84C122.197 1098.9 123.181 1100.88 124.157 1102.84C124.828 1104.19 125.495 1105.53 126.192 1106.89L126.196 1106.9C127.13 1108.72 128.273 1110.89 129.22 1112.57M115.091 1095.48C115.827 1096.59 116.487 1097.77 117.128 1098.96C118.219 1101 119.132 1102.84 120.069 1104.73C120.74 1106.08 121.422 1107.45 122.191 1108.95C123.147 1110.81 124.344 1113.09 125.346 1114.86M129.22 1112.57C129.205 1112.54 129.19 1112.52 129.175 1112.5L125.346 1114.86M129.22 1112.57C129.234 1112.59 129.247 1112.62 129.26 1112.64L125.346 1114.86M179.805 1085.76C179.805 1085.76 179.801 1085.74 179.797 1085.72C179.805 1085.75 179.806 1085.76 179.805 1085.76Z" stroke="#499DFF" stroke-opacity="0.18" stroke-width="9"/>
<g opacity="0.9" filter="url(#filter18_ddi_238_35)">
<path d="M438.87 480.26C438.122 479.601 437.877 478.843 437.376 477.879C437.045 477.179 436.653 476.278 436.342 475.541C435.741 474.126 435.309 472.986 434.696 471.598C434.486 471.129 434.268 470.659 434.019 470.218C433.573 469.431 433.216 469.148 432.676 468.876C429.83 467.655 426.726 466.989 423.849 465.78C422.447 465.155 421.878 464.883 421.657 464.23C421.346 463.351 423.679 461.266 424.612 460.426C425.891 459.278 427.357 458.057 428.628 456.911C430.282 455.507 430.762 454.774 430.767 452.561C430.83 450.721 430.765 448.354 430.814 446.436C430.901 445.251 430.816 441.923 432.175 441.924C432.904 441.865 434.533 442.782 435.594 443.363C437.36 444.35 439.028 445.439 440.767 446.458C443.029 447.855 443.606 447.837 446.135 447.001C448.418 446.288 450.685 445.438 452.989 444.844C454.211 444.56 454.776 444.433 455.406 444.589C455.873 444.737 456.112 445.219 456.07 446.321C455.979 447.926 455.567 449.762 455.181 451.406C454.78 453.232 454.279 454.978 454.095 456.725C453.977 458.436 455.215 459.591 456.137 460.988C456.942 462.114 457.762 463.205 458.54 464.313C459.257 465.407 460.979 467.628 460.57 468.66C460.288 469.189 459.777 469.321 458.573 469.592C455.558 470.156 452.289 470.205 449.197 470.62C448.349 470.755 448.025 470.874 447.432 471.445C446.913 471.965 446.458 472.566 446.016 473.158C445.006 474.543 444.084 475.892 443.036 477.292C442.014 478.544 440.418 481.241 438.884 480.27L438.869 480.26L438.87 480.26Z" fill="#FFEE96"/>
</g>
<g opacity="0.9" filter="url(#filter19_ddi_238_35)">
<path d="M35.6318 524.302C36.5425 523.898 37.3343 523.992 38.4189 523.94C39.194 523.931 40.176 523.952 40.9753 523.977C42.5119 524.022 43.7282 524.106 45.2456 524.13C45.7591 524.134 46.2777 524.133 46.7819 524.09C47.6835 524.015 48.0899 523.808 48.5621 523.431C50.8612 521.356 52.7628 518.813 55.0633 516.705C56.2169 515.693 56.7019 515.289 57.3869 515.362C58.3162 515.447 59.235 518.437 59.609 519.636C60.118 521.277 60.6145 523.12 61.1248 524.753C61.7084 526.842 62.1743 527.584 64.1829 528.514C65.8276 529.339 68.006 530.269 69.7272 531.116C70.768 531.69 73.8271 533.003 73.2586 534.238C73.0072 534.924 71.4933 536.021 70.5225 536.742C68.8876 537.934 67.2016 538.995 65.5488 540.148C63.3345 541.62 63.1095 542.152 62.8134 544.799C62.5068 547.171 62.3322 549.586 61.909 551.927C61.6561 553.156 61.5356 553.723 61.1304 554.23C60.8008 554.592 60.2633 554.608 59.2795 554.109C57.8598 553.356 56.3639 552.214 55.0313 551.177C53.5402 550.05 52.1629 548.865 50.6524 547.968C49.1475 547.146 47.5805 547.788 45.9261 548.042C44.5671 548.303 43.2329 548.592 41.9017 548.836C40.6074 549.03 37.8704 549.667 37.1035 548.864C36.741 548.387 36.8347 547.867 37.0918 546.66C37.839 543.685 39.16 540.695 40.075 537.712C40.3069 536.885 40.3336 536.542 40.0628 535.763C39.8077 535.076 39.4514 534.41 39.0983 533.762C38.2617 532.266 37.4219 530.865 36.588 529.327C35.8767 527.875 34.0932 525.299 35.6167 524.31L35.6326 524.301L35.6318 524.302Z" fill="#FFEE96"/>
</g>
<g filter="url(#filter20_ddi_238_35)">
<path d="M1310.16 922.089C1308.13 922.112 1306.72 921.296 1304.64 920.518C1303.18 919.908 1301.36 919.076 1299.88 918.384C1297.03 917.058 1294.82 915.918 1291.99 914.649C1291.03 914.226 1290.06 913.81 1289.08 913.482C1287.33 912.896 1286.4 912.955 1285.21 913.281C1279.22 915.316 1273.6 918.549 1267.58 920.646C1264.6 921.612 1263.37 921.978 1262.14 921.289C1260.46 920.379 1261.16 914.029 1261.42 911.478C1261.79 907.989 1262.35 904.132 1262.71 900.657C1263.3 896.267 1263.03 894.499 1260.01 891.134C1257.6 888.257 1254.26 884.754 1251.72 881.776C1250.23 879.858 1245.55 874.926 1247.61 873.069C1248.64 871.985 1252.37 871.151 1254.77 870.581C1258.8 869.667 1262.82 869.038 1266.85 868.209C1272.19 867.238 1273.04 866.421 1275.73 861.697C1278.22 857.495 1280.5 853.107 1283.19 849.057C1284.65 846.957 1285.34 845.992 1286.51 845.368C1287.42 844.954 1288.44 845.359 1289.88 847.089C1291.93 849.647 1293.82 852.997 1295.48 856.019C1297.37 859.337 1298.99 862.671 1301.1 865.574C1303.26 868.33 1306.72 868.392 1310.02 869.252C1312.78 869.859 1315.52 870.396 1318.21 871.013C1320.8 871.694 1326.45 872.71 1327.24 874.835C1327.53 876.022 1326.94 876.921 1325.48 878.977C1321.67 883.953 1316.78 888.495 1312.66 893.351C1311.55 894.714 1311.23 895.337 1311.11 897.015C1311.03 898.511 1311.16 900.047 1311.3 901.547C1311.66 905.03 1312.1 908.335 1312.43 911.893C1312.59 915.19 1313.85 921.463 1310.2 922.086L1310.16 922.09L1310.16 922.089Z" fill="#FFEE96"/>
</g>
<g filter="url(#filter21_di_238_35)">
<path d="M1446.55 244.513C1447.32 246.028 1447.24 247.386 1447.43 249.23C1447.51 250.551 1447.57 252.227 1447.6 253.592C1447.67 256.215 1447.64 258.296 1447.74 260.885C1447.78 261.761 1447.83 262.645 1447.95 263.5C1448.16 265.03 1448.55 265.704 1449.24 266.473C1452.99 270.199 1457.5 273.203 1461.31 276.928C1463.15 278.8 1463.88 279.589 1463.82 280.763C1463.76 282.356 1458.75 284.201 1456.74 284.95C1453.99 285.971 1450.9 286.989 1448.16 288.012C1444.65 289.202 1443.43 290.065 1442.03 293.576C1440.78 296.456 1439.4 300.257 1438.12 303.27C1437.23 305.098 1435.28 310.435 1433.12 309.581C1431.93 309.216 1429.92 306.738 1428.6 305.15C1426.42 302.475 1424.45 299.7 1422.33 296.99C1419.61 293.353 1418.69 293.019 1414.15 292.761C1410.07 292.46 1405.94 292.388 1401.91 291.885C1399.79 291.568 1398.81 291.416 1397.91 290.772C1397.26 290.244 1397.19 289.329 1397.95 287.606C1399.1 285.116 1400.9 282.459 1402.55 280.09C1404.33 277.443 1406.22 274.985 1407.61 272.326C1408.87 269.684 1407.63 267.073 1407.04 264.277C1406.47 261.985 1405.85 259.737 1405.31 257.491C1404.86 255.302 1403.52 250.696 1404.82 249.314C1405.6 248.652 1406.49 248.763 1408.57 249.088C1413.71 250.084 1418.93 252.057 1424.1 253.339C1425.54 253.657 1426.12 253.67 1427.42 253.136C1428.57 252.637 1429.67 251.967 1430.75 251.305C1433.22 249.739 1435.53 248.177 1438.07 246.612C1440.48 245.264 1444.71 241.983 1446.53 244.488L1446.55 244.514L1446.55 244.513Z" fill="#FFEE96"/>
</g>
<g style="mix-blend-mode:soft-light" opacity="0.5" filter="url(#filter22_f_238_35)">
<ellipse cx="1430" cy="273.492" rx="47.3106" ry="44.1261" transform="rotate(-11.2256 1430 273.492)" fill="#FFE9C9"/>
</g>
<g style="mix-blend-mode:soft-light" opacity="0.4" filter="url(#filter23_f_238_35)">
<path d="M1229 151C1229 151 1205.25 179.394 1193.5 186C1181.75 192.607 1190.61 172.927 1171.5 212C1165.28 232.392 1213.23 329.639 1214 359C1214.77 388.361 1185.91 373.604 1193.5 405C1201.09 436.396 1161.39 470.983 1174 497C1186.61 523.017 1199.35 521.506 1214 536C1228.65 550.494 1257.85 580.895 1271.09 580.443C1284.33 579.992 1302.3 567.291 1311 552C1292.5 454.536 1225.67 484.829 1247 349C1234.9 333.822 1355.39 300.726 1348 286C1340.03 270.116 1343.7 273.663 1340 259C1204 268 1229 151 1229 151Z" fill="white"/>
</g>
<path opacity="0.2" d="M75.4181 1903.96H-6.7448C-9.09488 1903.96 -11 1902.05 -11 1899.7L-11 1821.26C-11 1818.91 -9.09488 1817 -6.7448 1817H71.1629C73.5129 1817 75.4181 1818.91 75.4181 1821.26V1903.96ZM75.4181 1903.96H159.327C161.677 1903.96 163.582 1905.86 163.582 1908.21V1991.78M75.4181 1903.96V1987.53C75.4181 1989.88 77.3232 1991.78 79.6733 1991.78H163.582M163.582 1991.78V2072.74C163.582 2075.09 165.487 2077 167.837 2077H245.745C248.095 2077 250 2075.09 250 2072.74V1996.04C250 1993.69 248.095 1991.78 245.745 1991.78H163.582Z" stroke="#499DFF" stroke-width="9"/>
<g opacity="0.1">
<path d="M1477.46 2085.56C1466.08 2052.01 1427.55 2034.34 1391.08 2046.71C1354.61 2059.08 1334.79 2096.55 1346.17 2130.1C1357.56 2163.64 1396.08 2181.32 1432.55 2168.94C1469.02 2156.57 1488.84 2119.1 1477.46 2085.56Z" stroke="#499DFF" stroke-width="7"/>
<line y1="-3.5" x2="134.562" y2="-3.5" transform="matrix(0.892537 0.450973 0.51024 -0.860032 1353.19 2072.78)" stroke="#499DFF" stroke-width="7"/>
<line y1="-3.5" x2="135.357" y2="-3.5" transform="matrix(-0.510247 0.860028 0.892534 0.45098 1447.7 2049.16)" stroke="#499DFF" stroke-width="7"/>
</g>
<path d="M661.232 2192.24C661.428 2192.12 661.669 2191.94 661.956 2191.71C662.739 2191.09 663.576 2190.26 664.481 2189.3C664.746 2189.02 665.039 2188.7 665.342 2188.38C665.924 2187.75 666.541 2187.08 667.063 2186.56C668.87 2184.6 670.488 2182.76 672.146 2180.87C673.333 2179.52 674.54 2178.15 675.852 2176.69L675.868 2176.68L675.885 2176.66C677.176 2175.25 678.73 2173.58 680.507 2172.13L680.543 2172.1L680.578 2172.08C681.622 2171.26 682.732 2170.53 684.133 2170.06C685.46 2169.62 686.762 2169.52 687.927 2169.46L687.982 2169.45L688.036 2169.45C691.553 2169.34 695.144 2169.42 698.599 2169.49C699.297 2169.5 699.989 2169.52 700.674 2169.53C704.79 2169.6 708.705 2169.62 712.444 2169.32C712.954 2169.26 713.382 2169.21 713.752 2169.16C713.625 2168.8 713.464 2168.41 713.268 2167.96C712.642 2166.54 711.924 2165.23 711.23 2163.96C710.9 2163.35 710.575 2162.75 710.267 2162.16C709.282 2160.4 708.307 2158.73 707.304 2157C706.543 2155.7 705.765 2154.36 704.954 2152.94L704.912 2152.87L704.873 2152.79C704.488 2152.05 704.066 2151.34 703.581 2150.51C703.511 2150.39 703.441 2150.27 703.369 2150.15C702.822 2149.22 702.199 2148.14 701.661 2147C700.557 2144.66 699.658 2141.74 700.259 2138.28L700.273 2138.2L700.29 2138.12C701.046 2134.54 702.322 2130.89 703.507 2127.5C703.92 2126.32 704.322 2125.17 704.687 2124.06L704.697 2124.03L704.708 2124C706.15 2119.84 707.559 2115.61 708.175 2111.94C707.564 2112 706.771 2112.09 705.633 2112.23C701.768 2112.82 698.056 2113.65 694.178 2114.51C692.02 2114.99 689.811 2115.48 687.495 2115.95C684.244 2116.67 681.267 2117.27 678.302 2116.69C675.25 2116.1 672.757 2114.39 670.014 2112.28C668.117 2110.89 666.378 2109.56 664.679 2108.25C662.314 2106.44 660.027 2104.69 657.498 2102.91C657.373 2102.83 657.247 2102.74 657.12 2102.65C655.869 2101.79 654.511 2100.85 653.235 2100.08C652.979 2099.93 652.739 2099.79 652.517 2099.67C652.474 2099.81 652.429 2099.96 652.384 2100.13C651.968 2101.66 651.748 2103.19 651.536 2104.65C651.438 2105.32 651.342 2105.98 651.23 2106.62C650.938 2108.89 650.681 2111.42 650.417 2114.02L650.374 2114.45C650.098 2117.18 649.81 2119.97 649.471 2122.44C649.134 2125.57 648.512 2128.27 646.925 2130.7C645.388 2133.05 643.217 2134.71 640.851 2136.33C639.011 2137.67 637.048 2139.04 635.127 2140.38L635.002 2140.47C633.092 2141.8 631.226 2143.11 629.486 2144.37C629.485 2144.37 629.483 2144.37 629.482 2144.37L629.418 2144.42C628.049 2145.42 625.964 2146.94 624.279 2148.47C623.957 2148.76 623.673 2149.03 623.428 2149.28C623.463 2149.3 623.498 2149.32 623.535 2149.34C624.08 2149.68 624.745 2150.07 625.604 2150.56C628.929 2152.38 632.451 2153.91 636.194 2155.53L636.307 2155.58C640.039 2157.19 643.994 2158.91 647.766 2161.01L647.885 2161.08L647.999 2161.15C648.875 2161.71 649.822 2162.41 650.716 2163.46C651.591 2164.49 652.252 2165.66 652.837 2167M661.232 2192.24L648.713 2168.8M661.232 2192.24C660.981 2191.78 660.777 2191.22 660.464 2190.36C660.249 2189.77 659.983 2189.05 659.614 2188.11M661.232 2192.24L657.879 2195.34C657.024 2194.12 656.557 2192.83 656.021 2191.35C655.828 2190.82 655.627 2190.27 655.397 2189.68M652.837 2167L648.713 2168.8M652.837 2167C652.837 2167 652.837 2167 652.837 2167L648.713 2168.8M652.837 2167C653.458 2168.42 653.954 2169.88 654.379 2171.17L654.384 2171.18L654.389 2171.2C655.107 2173.42 655.727 2175.54 656.342 2177.64C656.765 2179.09 657.185 2180.53 657.633 2181.98L657.636 2181.99C658.234 2183.95 658.976 2186.29 659.614 2188.11M648.713 2168.8C649.244 2170.02 649.684 2171.3 650.107 2172.58C650.82 2174.79 651.395 2176.76 651.986 2178.78C652.408 2180.23 652.838 2181.7 653.332 2183.31C653.945 2185.31 654.721 2187.76 655.397 2189.68M659.614 2188.11C659.603 2188.08 659.593 2188.05 659.582 2188.03L655.397 2189.68M659.614 2188.11C659.623 2188.13 659.632 2188.16 659.641 2188.18L655.397 2189.68M714.129 2170.62C714.128 2170.62 714.127 2170.61 714.128 2170.58C714.13 2170.61 714.129 2170.62 714.129 2170.62Z" stroke="#499DFF" stroke-opacity="0.18" stroke-width="9"/>
<path d="M797.12 2313.25C797.8 2313.13 798.58 2312.94 799.461 2312.7C799.746 2312.62 800.074 2312.52 800.418 2312.43C801.092 2312.23 801.829 2312.02 802.428 2311.87C804.508 2311.27 806.39 2310.67 808.328 2310.05C809.728 2309.61 811.157 2309.16 812.712 2308.69L812.735 2308.68L812.758 2308.67C814.249 2308.24 816.096 2307.7 818.016 2307.43L818.061 2307.43L818.106 2307.42C819.225 2307.29 820.414 2307.23 821.721 2307.53C822.951 2307.81 823.988 2308.33 824.837 2308.78L824.885 2308.81L824.932 2308.83C827.456 2310.25 829.958 2311.83 832.344 2313.34C832.825 2313.64 833.301 2313.94 833.771 2314.24C836.606 2316.02 839.296 2317.66 841.988 2319C842.139 2317.8 842.189 2316.65 842.239 2315.5C842.264 2314.93 842.288 2314.37 842.325 2313.79C842.38 2312.15 842.403 2310.59 842.428 2308.98C842.446 2307.75 842.465 2306.48 842.499 2305.12L842.501 2305.04L842.507 2304.95C842.548 2304.3 842.555 2303.64 842.564 2302.86C842.565 2302.74 842.567 2302.63 842.568 2302.51C842.579 2301.63 842.597 2300.58 842.706 2299.52C842.93 2297.32 843.569 2294.71 845.604 2292.37L845.657 2292.31L845.713 2292.25C847.794 2290.02 850.289 2287.95 852.559 2286.07C853.336 2285.43 854.086 2284.81 854.785 2284.21L854.809 2284.19L854.834 2284.17C857.271 2282.14 859.667 2280.1 861.518 2278.11C861.264 2278 860.977 2277.87 860.648 2277.72C857.726 2276.51 854.833 2275.54 851.78 2274.52C850.065 2273.94 848.299 2273.35 846.45 2272.69C843.901 2271.83 841.404 2270.94 839.428 2269.16C837.387 2267.32 836.307 2264.91 835.281 2262.28C834.529 2260.47 833.873 2258.8 833.235 2257.17C832.354 2254.93 831.508 2252.78 830.493 2250.47C830.443 2250.36 830.393 2250.25 830.342 2250.14C829.889 2249.13 829.413 2248.08 828.925 2247.12C828.483 2247.58 828.028 2248.1 827.571 2248.64C827.371 2248.88 827.133 2249.17 826.892 2249.46C826.548 2249.88 826.197 2250.31 825.936 2250.61C824.785 2252.06 823.546 2253.71 822.264 2255.42L822.057 2255.69C820.717 2257.48 819.33 2259.32 818.043 2260.91C816.46 2263 814.792 2264.74 812.489 2265.85C810.269 2266.92 807.912 2267.17 805.566 2267.3C803.706 2267.47 801.751 2267.6 799.848 2267.72L799.726 2267.73C797.825 2267.86 795.978 2267.98 794.236 2268.13C794.234 2268.13 794.233 2268.13 794.232 2268.13L794.183 2268.14C792.834 2268.25 790.843 2268.43 789.096 2268.76C789.233 2269.01 789.385 2269.29 789.555 2269.59C791.094 2272.23 792.893 2274.76 794.833 2277.48L794.88 2277.54C796.804 2280.24 798.87 2283.15 800.644 2286.25L800.711 2286.37L800.771 2286.49C801.168 2287.29 801.571 2288.26 801.771 2289.48C801.966 2290.68 801.927 2291.86 801.764 2293.09L797.12 2313.25ZM797.12 2313.25C797.162 2313.01 797.214 2312.73 797.279 2312.41C797.29 2312.35 797.301 2312.29 797.313 2312.23C797.397 2311.81 797.498 2311.3 797.59 2310.76C797.907 2309.24 798.372 2307.31 798.778 2305.69L798.78 2305.69C799.075 2304.51 799.385 2303.33 799.699 2302.14C800.16 2300.4 800.628 2298.62 801.064 2296.76L801.068 2296.75L801.071 2296.73C801.317 2295.65 801.593 2294.39 801.764 2293.09L797.12 2313.25ZM787.028 2269.32C787.023 2269.32 787.02 2269.32 787.02 2269.32C787.02 2269.32 787.023 2269.32 787.028 2269.32ZM841.544 2321.01C841.543 2321.01 841.552 2320.99 841.572 2320.95C841.555 2320.99 841.544 2321.01 841.544 2321.01ZM827.83 2245.28C827.82 2245.27 827.816 2245.26 827.816 2245.26C827.816 2245.26 827.82 2245.27 827.83 2245.28Z" stroke="#499DFF" stroke-opacity="0.18" stroke-width="9"/>
</g>
<defs>
<filter id="filter0_d_238_35" x="0.2" y="0" width="1939.6" height="2745.8" filterUnits="userSpaceOnUse" color-interpolation-filters="sRGB">
<feFlood flood-opacity="0" result="BackgroundImageFix"/>
<feColorMatrix in="SourceAlpha" type="matrix" values="0 0 0 0 0 0 0 0 0 0 0 0 0 0 0 0 0 0 127 0" result="hardAlpha"/>
<feOffset dy="20"/>
<feGaussianBlur stdDeviation="4.9"/>
<feComposite in2="hardAlpha" operator="out"/>
<feColorMatrix type="matrix" values="0 0 0 0 0 0 0 0 0 0 0 0 0 0 0 0 0 0 0.25 0"/>
<feBlend mode="normal" in2="BackgroundImageFix" result="effect1_dropShadow_238_35"/>
<feBlend mode="normal" in="SourceGraphic" in2="effect1_dropShadow_238_35" result="shape"/>
</filter>
<filter id="filter1_f_238_35" x="-1167" y="-540" width="4193" height="3190" filterUnits="userSpaceOnUse" color-interpolation-filters="sRGB">
<feFlood flood-opacity="0" result="BackgroundImageFix"/>
<feBlend mode="normal" in="SourceGraphic" in2="BackgroundImageFix" result="shape"/>
<feGaussianBlur stdDeviation="400" result="effect1_foregroundBlur_238_35"/>
</filter>
<filter id="filter2_f_238_35" x="-263.4" y="-74.4" width="1457.8" height="805.8" filterUnits="userSpaceOnUse" color-interpolation-filters="sRGB">
<feFlood flood-opacity="0" result="BackgroundImageFix"/>
<feBlend mode="normal" in="SourceGraphic" in2="BackgroundImageFix" result="shape"/>
<feGaussianBlur stdDeviation="109.2" result="effect1_foregroundBlur_238_35"/>
</filter>
<filter id="filter3_d_238_35" x="1548.3" y="284.3" width="635.4" height="635.4" filterUnits="userSpaceOnUse" color-interpolation-filters="sRGB">
<feFlood flood-opacity="0" result="BackgroundImageFix"/>
<feColorMatrix in="SourceAlpha" type="matrix" values="0 0 0 0 0 0 0 0 0 0 0 0 0 0 0 0 0 0 127 0" result="hardAlpha"/>
<feOffset dy="4"/>
<feGaussianBlur stdDeviation="50.35"/>
<feComposite in2="hardAlpha" operator="out"/>
<feColorMatrix type="matrix" values="0 0 0 0 0.0185 0 0 0 0 0 0 0 0 0 0.925 0 0 0 0.25 0"/>
<feBlend mode="normal" in2="BackgroundImageFix" result="effect1_dropShadow_238_35"/>
<feBlend mode="normal" in="SourceGraphic" in2="effect1_dropShadow_238_35" result="shape"/>
</filter>
<filter id="filter4_d_238_35" x="-269.755" y="484.646" width="582.021" height="582.021" filterUnits="userSpaceOnUse" color-interpolation-filters="sRGB">
<feFlood flood-opacity="0" result="BackgroundImageFix"/>
<feColorMatrix in="SourceAlpha" type="matrix" values="0 0 0 0 0 0 0 0 0 0 0 0 0 0 0 0 0 0 127 0" result="hardAlpha"/>
<feOffset dy="4"/>
<feGaussianBlur stdDeviation="45.05"/>
<feComposite in2="hardAlpha" operator="out"/>
<feColorMatrix type="matrix" values="0 0 0 0 0 0 0 0 0 0.0933333 0 0 0 0 0.583333 0 0 0 0.25 0"/>
<feBlend mode="normal" in2="BackgroundImageFix" result="effect1_dropShadow_238_35"/>
<feBlend mode="normal" in="SourceGraphic" in2="effect1_dropShadow_238_35" result="shape"/>
</filter>
<filter id="filter5_d_238_35" x="-172.4" y="669.6" width="2442.8" height="585.8" filterUnits="userSpaceOnUse" color-interpolation-filters="sRGB">
<feFlood flood-opacity="0" result="BackgroundImageFix"/>
<feColorMatrix in="SourceAlpha" type="matrix" values="0 0 0 0 0 0 0 0 0 0 0 0 0 0 0 0 0 0 127 0" result="hardAlpha"/>
<feOffset dy="-20"/>
<feGaussianBlur stdDeviation="22.2"/>
<feComposite in2="hardAlpha" operator="out"/>
<feColorMatrix type="matrix" values="0 0 0 0 0.241667 0 0 0 0 0.363 0 0 0 0 1 0 0 0 0.05 0"/>
<feBlend mode="normal" in2="BackgroundImageFix" result="effect1_dropShadow_238_35"/>
<feBlend mode="normal" in="SourceGraphic" in2="effect1_dropShadow_238_35" result="shape"/>
</filter>
<filter id="filter6_d_238_35" x="416.388" y="358.586" width="670.348" height="631.618" filterUnits="userSpaceOnUse" color-interpolation-filters="sRGB">
<feFlood flood-opacity="0" result="BackgroundImageFix"/>
<feColorMatrix in="SourceAlpha" type="matrix" values="0 0 0 0 0 0 0 0 0 0 0 0 0 0 0 0 0 0 127 0" result="hardAlpha"/>
<feOffset dx="10"/>
<feGaussianBlur stdDeviation="49.85"/>
<feComposite in2="hardAlpha" operator="out"/>
<feColorMatrix type="matrix" values="0 0 0 0 1 0 0 0 0 1 0 0 0 0 1 0 0 0 0.53 0"/>
<feBlend mode="normal" in2="BackgroundImageFix" result="effect1_dropShadow_238_35"/>
<feBlend mode="normal" in="SourceGraphic" in2="effect1_dropShadow_238_35" result="shape"/>
</filter>
<filter id="filter7_d_238_35" x="1165.26" y="153.701" width="217.252" height="240.888" filterUnits="userSpaceOnUse" color-interpolation-filters="sRGB">
<feFlood flood-opacity="0" result="BackgroundImageFix"/>
<feColorMatrix in="SourceAlpha" type="matrix" values="0 0 0 0 0 0 0 0 0 0 0 0 0 0 0 0 0 0 127 0" result="hardAlpha"/>
<feOffset dy="4"/>
<feGaussianBlur stdDeviation="2"/>
<feComposite in2="hardAlpha" operator="out"/>
<feColorMatrix type="matrix" values="0 0 0 0 0 0 0 0 0 0 0 0 0 0 0 0 0 0 0.25 0"/>
<feBlend mode="normal" in2="BackgroundImageFix" result="effect1_dropShadow_238_35"/>
<feBlend mode="normal" in="SourceGraphic" in2="effect1_dropShadow_238_35" result="shape"/>
</filter>
<filter id="filter8_d_238_35" x="1193.04" y="204.967" width="170.407" height="180.07" filterUnits="userSpaceOnUse" color-interpolation-filters="sRGB">
<feFlood flood-opacity="0" result="BackgroundImageFix"/>
<feColorMatrix in="SourceAlpha" type="matrix" values="0 0 0 0 0 0 0 0 0 0 0 0 0 0 0 0 0 0 127 0" result="hardAlpha"/>
<feOffset dy="4"/>
<feGaussianBlur stdDeviation="2"/>
<feComposite in2="hardAlpha" operator="out"/>
<feColorMatrix type="matrix" values="0 0 0 0 0.00692708 0 0 0 0 0.0616511 0 0 0 0 0.554167 0 0 0 0.14 0"/>
<feBlend mode="normal" in2="BackgroundImageFix" result="effect1_dropShadow_238_35"/>
<feBlend mode="normal" in="SourceGraphic" in2="effect1_dropShadow_238_35" result="shape"/>
</filter>
<filter id="filter9_d_238_35" x="1276.21" y="236.973" width="90.2671" height="99.9253" filterUnits="userSpaceOnUse" color-interpolation-filters="sRGB">
<feFlood flood-opacity="0" result="BackgroundImageFix"/>
<feColorMatrix in="SourceAlpha" type="matrix" values="0 0 0 0 0 0 0 0 0 0 0 0 0 0 0 0 0 0 127 0" result="hardAlpha"/>
<feOffset dy="4"/>
<feGaussianBlur stdDeviation="11.5"/>
<feComposite in2="hardAlpha" operator="out"/>
<feColorMatrix type="matrix" values="0 0 0 0 0.321875 0 0 0 0 0.44175 0 0 0 0 0.75 0 0 0 0.1 0"/>
<feBlend mode="normal" in2="BackgroundImageFix" result="effect1_dropShadow_238_35"/>
<feBlend mode="normal" in="SourceGraphic" in2="effect1_dropShadow_238_35" result="shape"/>
</filter>
<filter id="filter10_d_238_35" x="1220.77" y="249.091" width="97.7163" height="102.33" filterUnits="userSpaceOnUse" color-interpolation-filters="sRGB">
<feFlood flood-opacity="0" result="BackgroundImageFix"/>
<feColorMatrix in="SourceAlpha" type="matrix" values="0 0 0 0 0 0 0 0 0 0 0 0 0 0 0 0 0 0 127 0" result="hardAlpha"/>
<feOffset dy="4"/>
<feGaussianBlur stdDeviation="11.5"/>
<feComposite in2="hardAlpha" operator="out"/>
<feColorMatrix type="matrix" values="0 0 0 0 0.321875 0 0 0 0 0.44175 0 0 0 0 0.75 0 0 0 0.1 0"/>
<feBlend mode="normal" in2="BackgroundImageFix" result="effect1_dropShadow_238_35"/>
<feBlend mode="normal" in="SourceGraphic" in2="effect1_dropShadow_238_35" result="shape"/>
</filter>
<filter id="filter11_d_238_35" x="1178.56" y="351.096" width="251.903" height="209.656" filterUnits="userSpaceOnUse" color-interpolation-filters="sRGB">
<feFlood flood-opacity="0" result="BackgroundImageFix"/>
<feColorMatrix in="SourceAlpha" type="matrix" values="0 0 0 0 0 0 0 0 0 0 0 0 0 0 0 0 0 0 127 0" result="hardAlpha"/>
<feOffset dy="8"/>
<feGaussianBlur stdDeviation="4.9"/>
<feComposite in2="hardAlpha" operator="out"/>
<feColorMatrix type="matrix" values="0 0 0 0 0 0 0 0 0 0.107333 0 0 0 0 0.670833 0 0 0 0.25 0"/>
<feBlend mode="normal" in2="BackgroundImageFix" result="effect1_dropShadow_238_35"/>
<feBlend mode="normal" in="SourceGraphic" in2="effect1_dropShadow_238_35" result="shape"/>
</filter>
<filter id="filter12_ddi_238_35" x="184.849" y="610.742" width="246.753" height="247.051" filterUnits="userSpaceOnUse" color-interpolation-filters="sRGB">
<feFlood flood-opacity="0" result="BackgroundImageFix"/>
<feColorMatrix in="SourceAlpha" type="matrix" values="0 0 0 0 0 0 0 0 0 0 0 0 0 0 0 0 0 0 127 0" result="hardAlpha"/>
<feOffset dy="4"/>
<feGaussianBlur stdDeviation="44"/>
<feComposite in2="hardAlpha" operator="out"/>
<feColorMatrix type="matrix" values="0 0 0 0 1 0 0 0 0 0.7705 0 0 0 0 0.325 0 0 0 0.42 0"/>
<feBlend mode="normal" in2="BackgroundImageFix" result="effect1_dropShadow_238_35"/>
<feColorMatrix in="SourceAlpha" type="matrix" values="0 0 0 0 0 0 0 0 0 0 0 0 0 0 0 0 0 0 127 0" result="hardAlpha"/>
<feOffset dy="4"/>
<feGaussianBlur stdDeviation="2"/>
<feComposite in2="hardAlpha" operator="out"/>
<feColorMatrix type="matrix" values="0 0 0 0 0 0 0 0 0 0 0 0 0 0 0 0 0 0 0.1 0"/>
<feBlend mode="normal" in2="effect1_dropShadow_238_35" result="effect2_dropShadow_238_35"/>
<feBlend mode="normal" in="SourceGraphic" in2="effect2_dropShadow_238_35" result="shape"/>
<feColorMatrix in="SourceAlpha" type="matrix" values="0 0 0 0 0 0 0 0 0 0 0 0 0 0 0 0 0 0 127 0" result="hardAlpha"/>
<feOffset dx="2" dy="4"/>
<feGaussianBlur stdDeviation="10"/>
<feComposite in2="hardAlpha" operator="arithmetic" k2="-1" k3="1"/>
<feColorMatrix type="matrix" values="0 0 0 0 1 0 0 0 0 0.821868 0 0 0 0 0.729167 0 0 0 0.71 0"/>
<feBlend mode="normal" in2="shape" result="effect3_innerShadow_238_35"/>
</filter>
<filter id="filter13_d_238_35" x="714.8" y="536.8" width="110.4" height="259.4" filterUnits="userSpaceOnUse" color-interpolation-filters="sRGB">
<feFlood flood-opacity="0" result="BackgroundImageFix"/>
<feColorMatrix in="SourceAlpha" type="matrix" values="0 0 0 0 0 0 0 0 0 0 0 0 0 0 0 0 0 0 127 0" result="hardAlpha"/>
<feOffset dy="4"/>
<feGaussianBlur stdDeviation="22.35"/>
<feComposite in2="hardAlpha" operator="out"/>
<feColorMatrix type="matrix" values="0 0 0 0 0.405472 0 0 0 0 0.290278 0 0 0 0 0.733333 0 0 0 0.25 0"/>
<feBlend mode="normal" in2="BackgroundImageFix" result="effect1_dropShadow_238_35"/>
<feBlend mode="normal" in="SourceGraphic" in2="effect1_dropShadow_238_35" result="shape"/>
</filter>
<filter id="filter14_d_238_35" x="761.5" y="538.236" width="167.158" height="193.783" filterUnits="userSpaceOnUse" color-interpolation-filters="sRGB">
<feFlood flood-opacity="0" result="BackgroundImageFix"/>
<feColorMatrix in="SourceAlpha" type="matrix" values="0 0 0 0 0 0 0 0 0 0 0 0 0 0 0 0 0 0 127 0" result="hardAlpha"/>
<feOffset dy="4"/>
<feGaussianBlur stdDeviation="22.35"/>
<feComposite in2="hardAlpha" operator="out"/>
<feColorMatrix type="matrix" values="0 0 0 0 0.405472 0 0 0 0 0.290278 0 0 0 0 0.733333 0 0 0 0.25 0"/>
<feBlend mode="normal" in2="BackgroundImageFix" result="effect1_dropShadow_238_35"/>
<feBlend mode="normal" in="SourceGraphic" in2="effect1_dropShadow_238_35" result="shape"/>
</filter>
<filter id="filter15_d_238_35" x="594.519" y="589.529" width="177.713" height="203.559" filterUnits="userSpaceOnUse" color-interpolation-filters="sRGB">
<feFlood flood-opacity="0" result="BackgroundImageFix"/>
<feColorMatrix in="SourceAlpha" type="matrix" values="0 0 0 0 0 0 0 0 0 0 0 0 0 0 0 0 0 0 127 0" result="hardAlpha"/>
<feOffset dy="4"/>
<feGaussianBlur stdDeviation="22.35"/>
<feComposite in2="hardAlpha" operator="out"/>
<feColorMatrix type="matrix" values="0 0 0 0 0.405472 0 0 0 0 0.290278 0 0 0 0 0.733333 0 0 0 0.25 0"/>
<feBlend mode="normal" in2="BackgroundImageFix" result="effect1_dropShadow_238_35"/>
<feBlend mode="normal" in="SourceGraphic" in2="effect1_dropShadow_238_35" result="shape"/>
</filter>
<filter id="filter16_ddi_238_35" x="1478.23" y="309.834" width="215.057" height="214.602" filterUnits="userSpaceOnUse" color-interpolation-filters="sRGB">
<feFlood flood-opacity="0" result="BackgroundImageFix"/>
<feColorMatrix in="SourceAlpha" type="matrix" values="0 0 0 0 0 0 0 0 0 0 0 0 0 0 0 0 0 0 127 0" result="hardAlpha"/>
<feOffset dy="4"/>
<feGaussianBlur stdDeviation="44"/>
<feComposite in2="hardAlpha" operator="out"/>
<feColorMatrix type="matrix" values="0 0 0 0 1 0 0 0 0 0.7705 0 0 0 0 0.325 0 0 0 0.42 0"/>
<feBlend mode="normal" in2="BackgroundImageFix" result="effect1_dropShadow_238_35"/>
<feColorMatrix in="SourceAlpha" type="matrix" values="0 0 0 0 0 0 0 0 0 0 0 0 0 0 0 0 0 0 127 0" result="hardAlpha"/>
<feOffset dy="4"/>
<feGaussianBlur stdDeviation="7.45"/>
<feComposite in2="hardAlpha" operator="out"/>
<feColorMatrix type="matrix" values="0 0 0 0 0 0 0 0 0 0 0 0 0 0 0 0 0 0 0.1 0"/>
<feBlend mode="normal" in2="effect1_dropShadow_238_35" result="effect2_dropShadow_238_35"/>
<feBlend mode="normal" in="SourceGraphic" in2="effect2_dropShadow_238_35" result="shape"/>
<feColorMatrix in="SourceAlpha" type="matrix" values="0 0 0 0 0 0 0 0 0 0 0 0 0 0 0 0 0 0 127 0" result="hardAlpha"/>
<feOffset dx="2" dy="4"/>
<feGaussianBlur stdDeviation="10"/>
<feComposite in2="hardAlpha" operator="arithmetic" k2="-1" k3="1"/>
<feColorMatrix type="matrix" values="0 0 0 0 1 0 0 0 0 0.821868 0 0 0 0 0.729167 0 0 0 0.71 0"/>
<feBlend mode="normal" in2="shape" result="effect3_innerShadow_238_35"/>
</filter>
<filter id="filter17_ddi_238_35" x="1643.19" y="558.648" width="277.86" height="277.779" filterUnits="userSpaceOnUse" color-interpolation-filters="sRGB">
<feFlood flood-opacity="0" result="BackgroundImageFix"/>
<feColorMatrix in="SourceAlpha" type="matrix" values="0 0 0 0 0 0 0 0 0 0 0 0 0 0 0 0 0 0 127 0" result="hardAlpha"/>
<feOffset dy="4"/>
<feGaussianBlur stdDeviation="44"/>
<feComposite in2="hardAlpha" operator="out"/>
<feColorMatrix type="matrix" values="0 0 0 0 1 0 0 0 0 0.7705 0 0 0 0 0.325 0 0 0 0.42 0"/>
<feBlend mode="normal" in2="BackgroundImageFix" result="effect1_dropShadow_238_35"/>
<feColorMatrix in="SourceAlpha" type="matrix" values="0 0 0 0 0 0 0 0 0 0 0 0 0 0 0 0 0 0 127 0" result="hardAlpha"/>
<feOffset dy="4"/>
<feGaussianBlur stdDeviation="7.45"/>
<feComposite in2="hardAlpha" operator="out"/>
<feColorMatrix type="matrix" values="0 0 0 0 0 0 0 0 0 0 0 0 0 0 0 0 0 0 0.1 0"/>
<feBlend mode="normal" in2="effect1_dropShadow_238_35" result="effect2_dropShadow_238_35"/>
<feBlend mode="normal" in="SourceGraphic" in2="effect2_dropShadow_238_35" result="shape"/>
<feColorMatrix in="SourceAlpha" type="matrix" values="0 0 0 0 0 0 0 0 0 0 0 0 0 0 0 0 0 0 127 0" result="hardAlpha"/>
<feOffset dx="2" dy="4"/>
<feGaussianBlur stdDeviation="10"/>
<feComposite in2="hardAlpha" operator="arithmetic" k2="-1" k3="1"/>
<feColorMatrix type="matrix" values="0 0 0 0 1 0 0 0 0 0.821868 0 0 0 0 0.729167 0 0 0 0.71 0"/>
<feBlend mode="normal" in2="shape" result="effect3_innerShadow_238_35"/>
</filter>
<filter id="filter18_ddi_238_35" x="333.629" y="357.921" width="215.003" height="214.556" filterUnits="userSpaceOnUse" color-interpolation-filters="sRGB">
<feFlood flood-opacity="0" result="BackgroundImageFix"/>
<feColorMatrix in="SourceAlpha" type="matrix" values="0 0 0 0 0 0 0 0 0 0 0 0 0 0 0 0 0 0 127 0" result="hardAlpha"/>
<feOffset dy="4"/>
<feGaussianBlur stdDeviation="44"/>
<feComposite in2="hardAlpha" operator="out"/>
<feColorMatrix type="matrix" values="0 0 0 0 1 0 0 0 0 0.7705 0 0 0 0 0.325 0 0 0 0.42 0"/>
<feBlend mode="normal" in2="BackgroundImageFix" result="effect1_dropShadow_238_35"/>
<feColorMatrix in="SourceAlpha" type="matrix" values="0 0 0 0 0 0 0 0 0 0 0 0 0 0 0 0 0 0 127 0" result="hardAlpha"/>
<feOffset dy="4"/>
<feGaussianBlur stdDeviation="7.45"/>
<feComposite in2="hardAlpha" operator="out"/>
<feColorMatrix type="matrix" values="0 0 0 0 0 0 0 0 0 0 0 0 0 0 0 0 0 0 0.1 0"/>
<feBlend mode="normal" in2="effect1_dropShadow_238_35" result="effect2_dropShadow_238_35"/>
<feBlend mode="normal" in="SourceGraphic" in2="effect2_dropShadow_238_35" result="shape"/>
<feColorMatrix in="SourceAlpha" type="matrix" values="0 0 0 0 0 0 0 0 0 0 0 0 0 0 0 0 0 0 127 0" result="hardAlpha"/>
<feOffset dx="2" dy="4"/>
<feGaussianBlur stdDeviation="10"/>
<feComposite in2="hardAlpha" operator="arithmetic" k2="-1" k3="1"/>
<feColorMatrix type="matrix" values="0 0 0 0 1 0 0 0 0 0.821868 0 0 0 0 0.729167 0 0 0 0.71 0"/>
<feBlend mode="normal" in2="shape" result="effect3_innerShadow_238_35"/>
</filter>
<filter id="filter19_ddi_238_35" x="-52.9814" y="431.353" width="214.31" height="215.14" filterUnits="userSpaceOnUse" color-interpolation-filters="sRGB">
<feFlood flood-opacity="0" result="BackgroundImageFix"/>
<feColorMatrix in="SourceAlpha" type="matrix" values="0 0 0 0 0 0 0 0 0 0 0 0 0 0 0 0 0 0 127 0" result="hardAlpha"/>
<feOffset dy="4"/>
<feGaussianBlur stdDeviation="44"/>
<feComposite in2="hardAlpha" operator="out"/>
<feColorMatrix type="matrix" values="0 0 0 0 1 0 0 0 0 0.7705 0 0 0 0 0.325 0 0 0 0.42 0"/>
<feBlend mode="normal" in2="BackgroundImageFix" result="effect1_dropShadow_238_35"/>
<feColorMatrix in="SourceAlpha" type="matrix" values="0 0 0 0 0 0 0 0 0 0 0 0 0 0 0 0 0 0 127 0" result="hardAlpha"/>
<feOffset dy="4"/>
<feGaussianBlur stdDeviation="7.45"/>
<feComposite in2="hardAlpha" operator="out"/>
<feColorMatrix type="matrix" values="0 0 0 0 0 0 0 0 0 0 0 0 0 0 0 0 0 0 0.1 0"/>
<feBlend mode="normal" in2="effect1_dropShadow_238_35" result="effect2_dropShadow_238_35"/>
<feBlend mode="normal" in="SourceGraphic" in2="effect2_dropShadow_238_35" result="shape"/>
<feColorMatrix in="SourceAlpha" type="matrix" values="0 0 0 0 0 0 0 0 0 0 0 0 0 0 0 0 0 0 127 0" result="hardAlpha"/>
<feOffset dx="2" dy="4"/>
<feGaussianBlur stdDeviation="10"/>
<feComposite in2="hardAlpha" operator="arithmetic" k2="-1" k3="1"/>
<feColorMatrix type="matrix" values="0 0 0 0 1 0 0 0 0 0.821868 0 0 0 0 0.729167 0 0 0 0.71 0"/>
<feBlend mode="normal" in2="shape" result="effect3_innerShadow_238_35"/>
</filter>
<filter id="filter20_ddi_238_35" x="1159.1" y="761.218" width="256.211" height="252.872" filterUnits="userSpaceOnUse" color-interpolation-filters="sRGB">
<feFlood flood-opacity="0" result="BackgroundImageFix"/>
<feColorMatrix in="SourceAlpha" type="matrix" values="0 0 0 0 0 0 0 0 0 0 0 0 0 0 0 0 0 0 127 0" result="hardAlpha"/>
<feOffset dy="4"/>
<feGaussianBlur stdDeviation="44"/>
<feComposite in2="hardAlpha" operator="out"/>
<feColorMatrix type="matrix" values="0 0 0 0 1 0 0 0 0 0.7705 0 0 0 0 0.325 0 0 0 0.42 0"/>
<feBlend mode="normal" in2="BackgroundImageFix" result="effect1_dropShadow_238_35"/>
<feColorMatrix in="SourceAlpha" type="matrix" values="0 0 0 0 0 0 0 0 0 0 0 0 0 0 0 0 0 0 127 0" result="hardAlpha"/>
<feOffset dy="4"/>
<feGaussianBlur stdDeviation="2"/>
<feComposite in2="hardAlpha" operator="out"/>
<feColorMatrix type="matrix" values="0 0 0 0 0 0 0 0 0 0 0 0 0 0 0 0 0 0 0.1 0"/>
<feBlend mode="normal" in2="effect1_dropShadow_238_35" result="effect2_dropShadow_238_35"/>
<feBlend mode="normal" in="SourceGraphic" in2="effect2_dropShadow_238_35" result="shape"/>
<feColorMatrix in="SourceAlpha" type="matrix" values="0 0 0 0 0 0 0 0 0 0 0 0 0 0 0 0 0 0 127 0" result="hardAlpha"/>
<feOffset dx="2" dy="4"/>
<feGaussianBlur stdDeviation="10.95"/>
<feComposite in2="hardAlpha" operator="arithmetic" k2="-1" k3="1"/>
<feColorMatrix type="matrix" values="0 0 0 0 1 0 0 0 0 0.821868 0 0 0 0 0.729167 0 0 0 0.71 0"/>
<feBlend mode="normal" in2="shape" result="effect3_innerShadow_238_35"/>
</filter>
<filter id="filter21_di_238_35" x="1366.3" y="216.472" width="128.622" height="128.301" filterUnits="userSpaceOnUse" color-interpolation-filters="sRGB">
<feFlood flood-opacity="0" result="BackgroundImageFix"/>
<feColorMatrix in="SourceAlpha" type="matrix" values="0 0 0 0 0 0 0 0 0 0 0 0 0 0 0 0 0 0 127 0" result="hardAlpha"/>
<feOffset dy="4"/>
<feGaussianBlur stdDeviation="15.55"/>
<feComposite in2="hardAlpha" operator="out"/>
<feColorMatrix type="matrix" values="0 0 0 0 1 0 0 0 0 0.7705 0 0 0 0 0.325 0 0 0 0.42 0"/>
<feBlend mode="normal" in2="BackgroundImageFix" result="effect1_dropShadow_238_35"/>
<feBlend mode="normal" in="SourceGraphic" in2="effect1_dropShadow_238_35" result="shape"/>
<feColorMatrix in="SourceAlpha" type="matrix" values="0 0 0 0 0 0 0 0 0 0 0 0 0 0 0 0 0 0 127 0" result="hardAlpha"/>
<feOffset dx="2" dy="4"/>
<feGaussianBlur stdDeviation="5.6"/>
<feComposite in2="hardAlpha" operator="arithmetic" k2="-1" k3="1"/>
<feColorMatrix type="matrix" values="0 0 0 0 1 0 0 0 0 0.821868 0 0 0 0 0.729167 0 0 0 0.71 0"/>
<feBlend mode="normal" in2="shape" result="effect2_innerShadow_238_35"/>
</filter>
<filter id="filter22_f_238_35" x="1299.29" y="145.732" width="261.404" height="255.52" filterUnits="userSpaceOnUse" color-interpolation-filters="sRGB">
<feFlood flood-opacity="0" result="BackgroundImageFix"/>
<feBlend mode="normal" in="SourceGraphic" in2="BackgroundImageFix" result="shape"/>
<feGaussianBlur stdDeviation="41.75" result="effect1_foregroundBlur_238_35"/>
</filter>
<filter id="filter23_f_238_35" x="1100.64" y="80.7001" width="317.984" height="570.048" filterUnits="userSpaceOnUse" color-interpolation-filters="sRGB">
<feFlood flood-opacity="0" result="BackgroundImageFix"/>
<feBlend mode="normal" in="SourceGraphic" in2="BackgroundImageFix" result="shape"/>
<feGaussianBlur stdDeviation="35.15" result="effect1_foregroundBlur_238_35"/>
</filter>
<linearGradient id="paint0_linear_238_35" x1="970" y1="0" x2="970" y2="1440" gradientUnits="userSpaceOnUse">
<stop offset="0.0291667" stop-color="#224398"/>
<stop offset="0.277778" stop-color="#0066FF"/>
<stop offset="0.827778" stop-color="white"/>
</linearGradient>
<radialGradient id="paint1_radial_238_35" cx="0" cy="0" r="1" gradientUnits="userSpaceOnUse" gradientTransform="translate(871.001 894.983) rotate(178.386) scale(1669.49 653.616)">
<stop stop-color="#A4BEFF"/>
<stop offset="0.44" stop-color="#A1BCFE"/>
<stop offset="0.63" stop-color="#9AB8FE"/>
<stop offset="0.78" stop-color="#8EB0FC"/>
<stop offset="0.9" stop-color="#7CA4FB"/>
<stop offset="0.99" stop-color="#6797F9"/>
</radialGradient>
<radialGradient id="paint2_radial_238_35" cx="0" cy="0" r="1" gradientUnits="userSpaceOnUse" gradientTransform="translate(1496 979) rotate(-177.375) scale(1833.92 537.869)">
<stop stop-color="white"/>
<stop offset="1" stop-color="#82ABFF"/>
</radialGradient>
<radialGradient id="paint3_radial_238_35" cx="0" cy="0" r="1" gradientUnits="userSpaceOnUse" gradientTransform="translate(2025.79 602.326) scale(400.61)">
<stop offset="0.25" stop-color="#6ABAFF"/>
<stop offset="1" stop-color="#716AFF"/>
</radialGradient>
<radialGradient id="paint4_radial_238_35" cx="0" cy="0" r="1" gradientUnits="userSpaceOnUse" gradientTransform="translate(811 1420) rotate(-2.589) scale(1151.18 828.846)">
<stop stop-color="#EFF3FF"/>
<stop offset="0.458862" stop-color="white"/>
<stop offset="1" stop-color="#A4BEFF"/>
</radialGradient>
<radialGradient id="paint5_radial_238_35" cx="0" cy="0" r="1" gradientUnits="userSpaceOnUse" gradientTransform="translate(-81.3467 729.19) rotate(-6.32742) scale(345.591)">
<stop offset="0.24" stop-color="#6ABAFF"/>
<stop offset="0.87" stop-color="#716AFF"/>
</radialGradient>
<linearGradient id="paint6_linear_238_35" x1="1049" y1="1231" x2="1049" y2="333.719" gradientUnits="userSpaceOnUse">
<stop stop-color="white"/>
<stop offset="1" stop-color="#D8E3FF"/>
</linearGradient>
<linearGradient id="paint7_linear_238_35" x1="1029" y1="1036" x2="775" y2="1036" gradientUnits="userSpaceOnUse">
<stop stop-color="#7E89FC"/>
<stop offset="1" stop-color="white"/>
</linearGradient>
<linearGradient id="paint8_linear_238_35" x1="514" y1="963" x2="687" y2="998" gradientUnits="userSpaceOnUse">
<stop stop-color="#7E89FC"/>
<stop offset="1" stop-color="white"/>
</linearGradient>
<linearGradient id="paint9_linear_238_35" x1="828" y1="705" x2="1080" y2="921" gradientUnits="userSpaceOnUse">
<stop stop-color="#ABBEFF"/>
<stop offset="1" stop-color="#7B98FF"/>
</linearGradient>
<linearGradient id="paint10_linear_238_35" x1="814.442" y1="734.247" x2="1236.66" y2="412.32" gradientUnits="userSpaceOnUse">
<stop offset="0.21" stop-color="white"/>
<stop offset="0.34" stop-color="#E4E2FF"/>
<stop offset="0.61" stop-color="#A09BFF"/>
<stop offset="0.79" stop-color="#716AFF"/>
<stop offset="0.82" stop-color="#6664FF"/>
<stop offset="0.93" stop-color="#4956FF"/>
<stop offset="1" stop-color="#3F51FF"/>
</linearGradient>
<linearGradient id="paint11_linear_238_35" x1="1267.37" y1="151.91" x2="1278.17" y2="386.165" gradientUnits="userSpaceOnUse">
<stop stop-color="#4189F5"/>
<stop offset="1" stop-color="#7270FF"/>
</linearGradient>
<linearGradient id="paint12_linear_238_35" x1="1394.66" y1="267.441" x2="1396.61" y2="309.712" gradientUnits="userSpaceOnUse">
<stop stop-color="#4189F5"/>
<stop offset="1" stop-color="#7270FF"/>
</linearGradient>
<linearGradient id="paint13_linear_238_35" x1="1294" y1="283" x2="1122" y2="416" gradientUnits="userSpaceOnUse">
<stop stop-color="#ADC4FF"/>
<stop offset="1" stop-color="#FFDDFA"/>
</linearGradient>
<linearGradient id="paint14_linear_238_35" x1="1126.26" y1="373.81" x2="1184.73" y2="442.119" gradientUnits="userSpaceOnUse">
<stop stop-color="#8FACFF"/>
<stop offset="1" stop-color="#2E52B8"/>
</linearGradient>
<linearGradient id="paint15_linear_238_35" x1="1169.64" y1="510.427" x2="1228.12" y2="480.512" gradientUnits="userSpaceOnUse">
<stop stop-color="#C8B5FF"/>
<stop offset="1" stop-color="#0032C0"/>
</linearGradient>
<linearGradient id="paint16_linear_238_35" x1="1220.88" y1="603.444" x2="1345.68" y2="551.37" gradientUnits="userSpaceOnUse">
<stop stop-color="#8FACFF"/>
<stop offset="1" stop-color="#2E52B8"/>
</linearGradient>
<linearGradient id="paint17_linear_238_35" x1="1235" y1="491" x2="1197" y2="341" gradientUnits="userSpaceOnUse">
<stop stop-color="#4189F5"/>
<stop offset="1" stop-color="#7270FF"/>
</linearGradient>
<linearGradient id="paint18_linear_238_35" x1="1301.05" y1="354.293" x2="1448.3" y2="641.868" gradientUnits="userSpaceOnUse">
<stop stop-color="white"/>
<stop offset="1" stop-color="#91A2FF"/>
</linearGradient>
<linearGradient id="paint19_linear_238_35" x1="1342.37" y1="301.185" x2="1411.6" y2="453.103" gradientUnits="userSpaceOnUse">
<stop stop-color="#8FACFF"/>
<stop offset="1" stop-color="#2E52B8"/>
</linearGradient>
<linearGradient id="paint20_linear_238_35" x1="1295.05" y1="405.143" x2="1319.53" y2="512.872" gradientUnits="userSpaceOnUse">
<stop stop-color="white"/>
<stop offset="1" stop-color="#0085FF"/>
</linearGradient>
<linearGradient id="paint21_linear_238_35" x1="1286.97" y1="383.885" x2="1305.4" y2="475.899" gradientUnits="userSpaceOnUse">
<stop stop-color="#8FACFF"/>
<stop offset="1" stop-color="#2E52B8"/>
</linearGradient>
<clipPath id="clip0_238_35">
<rect width="1920" height="2716" fill="white" transform="translate(10)"/>
</clipPath>
</defs>
</svg>
